<?xml version="1.0" encoding="UTF-8" standalone="no"?>
<!-- Created with Inkscape (http://www.inkscape.org/) -->

<svg
   xmlns:dc="http://purl.org/dc/elements/1.1/"
   xmlns:cc="http://creativecommons.org/ns#"
   xmlns:rdf="http://www.w3.org/1999/02/22-rdf-syntax-ns#"
   xmlns:svg="http://www.w3.org/2000/svg"
   xmlns="http://www.w3.org/2000/svg"
   xmlns:sodipodi="http://sodipodi.sourceforge.net/DTD/sodipodi-0.dtd"
   xmlns:inkscape="http://www.inkscape.org/namespaces/inkscape"
   id="svg2"
   sodipodi:docname="footballer.svg"
   viewBox="0 0 167.54 268.37"
   version="1.1"
   inkscape:version="0.48.5 r10040"
   width="100%"
   height="100%"
   inkscape:export-filename="/home/sverdan/Travail/01 Cours/08_Physique_3M/01_exercices/images/footballer.png"
   inkscape:export-xdpi="150"
   inkscape:export-ydpi="150">
  <defs
     id="defs10" />
  <sodipodi:namedview
     id="base"
     bordercolor="#666666"
     inkscape:pageshadow="2"
     inkscape:window-y="24"
     pagecolor="#ffffff"
     inkscape:window-height="852"
     inkscape:window-maximized="1"
     inkscape:zoom="0.98994949"
     inkscape:window-x="0"
     showgrid="false"
     borderopacity="1.0"
     inkscape:current-layer="layer1"
     inkscape:cx="515.9218"
     inkscape:cy="-32.390054"
     inkscape:window-width="1440"
     inkscape:pageopacity="0.0"
     inkscape:document-units="px" />
  <g
     id="layer1"
     inkscape:label="Camada 1"
     inkscape:groupmode="layer"
     transform="translate(-340.07 -258.54)">
    <path
       inkscape:connector-curvature="0"
       d="m 380.3507,521.9004 c 10.83864,4.83426 21.58422,4.09372 31.65281,-1.97671 12.75442,-2.7126 1.73669,-19.64214 5.5955,-29.23592 0.43305,-6.67209 2.10392,-13.18877 3.12708,-19.78732 7.44738,7.01398 10.54138,17.6001 10.12238,27.61157 -0.97981,10.4275 -9.49239,18.59137 -12.04637,27.41403 10.43011,2.36489 19.92536,-6.95721 26.62387,-14.30499 8.68283,-3.48134 13.9111,-12.03209 4.53985,-18.52116 -8.98391,-14.58226 -10.69049,-32.24424 -17.15147,-47.92487 -8.00025,-10.29743 11.20587,-11.31381 11.90238,-20.70838 4.34683,-8.26098 12.21059,-13.30063 19.33393,-18.68895 5.33905,-9.33495 5.04762,-20.54654 7.46642,-30.78292 2.23505,-8.93761 -3.59214,-25.50765 3.35913,-30.07487 10.15439,4.83247 11.08163,17.41446 14.31332,26.96659 5.18185,12.49024 0.57217,24.01777 -2.07512,36.06414 0.19604,11.34189 11.63022,-11.65724 6.60842,1.08345 -8.45721,11.51325 14.90475,-2.20174 13.17925,-9.53892 -2.504,-8.77316 -4.43322,-18.06301 -4.40002,-27.49614 0.28218,-11.25812 -2.62431,-21.66514 -9.72195,-30.49613 -6.07114,-10.27113 -18.59375,-14.20741 -25.1923,-24.29742 -7.34932,-9.47169 -15.14275,-18.90553 -25.18635,-25.65283 -0.35951,-8.75424 -2.93085,-17.76194 -7.53293,-25.13637 -7.06242,-10.05467 -20.4799,-8.61536 -26.81427,-2.26433 -8.21112,8.2323 -1.76953,23.86307 3.02474,34.75038 0.9014,2.04691 6.56856,3.09435 6.96864,4.91089 0.90971,4.13049 -2.55124,7.99156 -7.34563,11.52955 -9.91746,7.31838 -21.92099,8.94785 -33.44138,13.71951 -9.75467,5.55599 -20.58462,2.93157 -29.98443,4.41002 -9.27022,1.06973 -8.65571,18.66158 0.88267,10.29231 10.8002,-1.2107 21.95193,1.22142 32.60243,-2.66286 12.64851,-5.53898 27.68416,-2.41213 38.00265,-10.95943 7.65003,6.43065 7.08204,21.98525 3.10268,31.42552 -4.06611,17.60367 1.44157,38.62026 -11.70686,53.20014 -6.89569,8.69748 -16.88967,17.75956 -15.35814,29.91422 6.19895,10.48974 6.3765,22.9432 7.97038,34.70873 1.46489,11.51682 -1.19559,22.73733 -10.1426,30.64726 -5.56897,2.40499 -10.94146,5.27266 -12.27723,11.86597 z"
       style="fill:#000000;stroke:#000000;stroke-width:1.19000006px"
       sodipodi:nodetypes="ccccccccccccccccccccccasssccccccccccc"
       id="path2830" />
    <path
       sodipodi:cx="357.67856"
       sodipodi:cy="458.61218"
       d="m 371.07142,458.61218 a 13.392858,13.392858 0 1 1 -26.78572,0 13.392858,13.392858 0 1 1 26.78572,0 z"
       sodipodi:type="arc"
       style="fill:#000000;stroke:#000000;stroke-width:5"
       sodipodi:ry="13.392858"
       sodipodi:rx="13.392858"
       id="path2832"
       transform="matrix(1.19,0,0,1.19,-58.626,-41.133)" />
  </g>
  <metadata
     id="metadata8">
    <rdf:RDF>
      <cc:Work>
        <dc:format>image/svg+xml</dc:format>
        <dc:type
           rdf:resource="http://purl.org/dc/dcmitype/StillImage" />
        <cc:license
           rdf:resource="http://creativecommons.org/licenses/publicdomain/" />
        <dc:publisher>
          <cc:Agent
             rdf:about="http://openclipart.org/">
            <dc:title>Openclipart</dc:title>
          </cc:Agent>
        </dc:publisher>
        <dc:title>Soccer player silhouette</dc:title>
        <dc:date>2010-08-02T04:40:56</dc:date>
        <dc:description>A silhouette of a soccer player dribbling.</dc:description>
        <dc:source>https://openclipart.org/detail/76003/soccer-player-silhouette-by-laobc-76003</dc:source>
        <dc:creator>
          <cc:Agent>
            <dc:title>laobc</dc:title>
          </cc:Agent>
        </dc:creator>
        <dc:subject>
          <rdf:Bag>
            <rdf:li>ball</rdf:li>
            <rdf:li>black and white</rdf:li>
            <rdf:li>dribble</rdf:li>
            <rdf:li>dribbling</rdf:li>
            <rdf:li>silhouette</rdf:li>
            <rdf:li>soccer</rdf:li>
            <rdf:li>sports</rdf:li>
            <rdf:li>sports2010</rdf:li>
          </rdf:Bag>
        </dc:subject>
      </cc:Work>
      <cc:License
         rdf:about="http://creativecommons.org/licenses/publicdomain/">
        <cc:permits
           rdf:resource="http://creativecommons.org/ns#Reproduction" />
        <cc:permits
           rdf:resource="http://creativecommons.org/ns#Distribution" />
        <cc:permits
           rdf:resource="http://creativecommons.org/ns#DerivativeWorks" />
      </cc:License>
    </rdf:RDF>
  </metadata>
</svg>
