<?xml version="1.0" encoding="UTF-8" standalone="no"?>
<!-- Created with Inkscape (http://www.inkscape.org/) -->

<svg
   xmlns:i="http://ns.adobe.com/AdobeIllustrator/10.0/"
   xmlns:dc="http://purl.org/dc/elements/1.1/"
   xmlns:cc="http://creativecommons.org/ns#"
   xmlns:rdf="http://www.w3.org/1999/02/22-rdf-syntax-ns#"
   xmlns:svg="http://www.w3.org/2000/svg"
   xmlns="http://www.w3.org/2000/svg"
   xmlns:sodipodi="http://sodipodi.sourceforge.net/DTD/sodipodi-0.dtd"
   xmlns:inkscape="http://www.inkscape.org/namespaces/inkscape"
   id="svg2"
   sodipodi:docname="footplayer.svg"
   viewBox="0 0 300 400"
   version="1.1"
   inkscape:version="0.48.5 r10040"
   width="100%"
   height="100%"
   inkscape:export-filename="/home/sverdan/Travail/01 Cours/08_Physique_3M/01_activité_action_mécanique/images/footplayer.png"
   inkscape:export-xdpi="150"
   inkscape:export-ydpi="150">
  <defs
     id="defs66" />
  <title
     id="title4129">Soccer Boy</title>
  <sodipodi:namedview
     id="base"
     bordercolor="#666666"
     inkscape:pageshadow="2"
     inkscape:window-y="24"
     pagecolor="#ffffff"
     inkscape:window-height="976"
     inkscape:window-maximized="1"
     inkscape:zoom="1.4142136"
     inkscape:window-x="0"
     showgrid="false"
     borderopacity="1.0"
     inkscape:current-layer="layer1"
     inkscape:cx="140.04331"
     inkscape:cy="143.76818"
     inkscape:window-width="1280"
     inkscape:pageopacity="0.0"
     inkscape:document-units="px" />
  <g
     id="layer1"
     inkscape:label="Ebene 1"
     inkscape:groupmode="layer"
     transform="translate(0 -652.36)">
    <path
       inkscape:connector-curvature="0"
       style="fill:none;stroke:#000000;stroke-width:2.83459997;stroke-linecap:round"
       sodipodi:nodetypes="cccc"
       d="m 107.8,710.31 c 0.98652,4.9937 3.513,7.3602 6.5432,7.0881 5.9711,-0.74419 9.1386,5.1401 3.4562,9.1478 -3.0802,2.4983 -8.04,1.2667 -11.342,-1.257"
       id="path3756" />
    <path
       inkscape:connector-curvature="0"
       style="fill:none;stroke:#000000;stroke-width:2.12599993"
       sodipodi:nodetypes="ccc"
       d="m 98.528,705.16 c 1.3095,11.778 -13.605,7.8139 -16.738,5.757 1.6829,-3.4097 11.01,-10.483 16.738,-5.757 z"
       id="path3758" />
    <path
       inkscape:connector-curvature="0"
       style="fill:none;stroke:#000000;stroke-width:2.12599993"
       sodipodi:nodetypes="ccc"
       d="m 110.26,703.77 c 5.9033,8.87 14.347,-1.7616 15.41,-4.845 -3.1951,-1.4786 -14.029,-1.4628 -15.41,4.845 z"
       id="path3758-4" />
    <path
       inkscape:connector-curvature="0"
       style="fill:none;stroke:#000000;stroke-width:2.83459997;stroke-linecap:round"
       sodipodi:nodetypes="cccc"
       d="m 86.334,738.57 c 25.693,4.8001 30.711,2.6866 36.345,-4.3513 -3.1863,4.3815 -1.2923,8.2663 -9.6541,13.87 -9.5543,4.2003 -6.8834,-8.1522 -26.691,-9.5185 z"
       id="path3778" />
    <path
       inkscape:connector-curvature="0"
       style="fill:none;stroke:#000000;stroke-width:2.83459997;stroke-linecap:round"
       sodipodi:nodetypes="ccc"
       d="m 75.26,703.22 c 5.4253,-3.2432 8.2178,-9.3682 18.456,-7.3428"
       id="path3780" />
    <path
       inkscape:connector-curvature="0"
       style="fill:none;stroke:#000000;stroke-width:2.83459997;stroke-linecap:round"
       sodipodi:nodetypes="ccc"
       d="m 125.32,691.89 c -6.3897,-0.25715 -9.4184,-4.265 -17.281,2.3351"
       id="path3780-7" />
    <path
       sodipodi:cx="382.85715"
       sodipodi:cy="120.04076"
       transform="matrix(0.67309,-0.22748,0.23318,0.65664,-193.53,716.38)"
       d="m 387.85715,120.04076 a 5,6.25 0 1 1 -10,0 5,6.25 0 1 1 10,0 z"
       sodipodi:type="arc"
       style="fill:none;stroke:#000000;stroke-width:3.02169991;stroke-linecap:round"
       sodipodi:ry="6.25"
       sodipodi:rx="5"
       id="path3800" />
    <path
       sodipodi:cx="382.85715"
       sodipodi:cy="120.04076"
       transform="matrix(0.71126,0.17608,-0.078765,0.59486,-144.62,563.18)"
       d="m 387.85715,120.04076 a 5,5.9342127 0 1 1 -10,0 5,5.9342127 0 1 1 10,0 z"
       sodipodi:type="arc"
       style="fill:none;stroke:#000000;stroke-width:3.21609998;stroke-linecap:round"
       sodipodi:ry="5.9342127"
       sodipodi:rx="5"
       id="path3800-8" />
    <path
       sodipodi:cx="388.75"
       sodipodi:cy="130.21933"
       transform="matrix(0.50594,0,0,0.5983,-104.24,630.07)"
       d="m 390.71429,130.21933 a 1.9642857,2.5 0 1 1 -3.92858,0 1.9642857,2.5 0 1 1 3.92858,0 z"
       sodipodi:type="arc"
       style="fill:#000000;stroke:#000000;stroke-width:2.57610011;stroke-linecap:round"
       sodipodi:ry="2.5"
       sodipodi:rx="1.9642857"
       id="path3827" />
    <path
       sodipodi:cx="388.75"
       sodipodi:cy="130.21933"
       transform="matrix(0.48356,-0.14253,0.18373,0.57184,-93.49,682.8)"
       d="m 390.71429,130.21933 a 1.9642857,2.5 0 1 1 -3.92858,0 1.9642857,2.5 0 1 1 3.92858,0 z"
       sodipodi:type="arc"
       style="fill:#000000;stroke:#000000;stroke-width:2.57610011;stroke-linecap:round"
       sodipodi:ry="2.5"
       sodipodi:rx="1.9642857"
       id="path3827-1" />
    <path
       inkscape:connector-curvature="0"
       style="fill:none;stroke:#000000;stroke-width:2.83459997"
       sodipodi:nodetypes="cssccccscccccccccccccccc"
       d="m 55.941,718.45 c 11.642,28.087 28.128,45.55 49.69,43.785 9.9686,-0.81587 11.465,-3.8508 16.497,-10.946 7.0107,-9.8848 11.915,-32.131 11.915,-46.175 1.9651,-2.1707 1.8549,-7.8482 -0.28749,-16.576 -1.1557,-13.515 -6.2586,-14.202 -11.081,-15.777 -2.5331,-8.6072 -7.1633,-9.1901 -11.926,-9.2567 -3.6049,-2.8369 -4.9975,-7.1839 -13.093,-6.9485 -1.8683,0.0544 -4.0905,0.35763 -6.7827,0.97565 -7.1637,0.27456 -14.715,-1.8328 -20.448,7.353 -9.4237,2.0207 -15.982,6.3351 -15.603,16.3 -10.104,9.6941 -10.942,17.166 -12.224,24.748 -0.24293,8.418 4.8093,19.685 18.758,33.719 3.0287,6.3685 7.754,7.2603 10.783,7.9003 -3.7024,-4.5804 -4.9837,-7.6097 -9.6648,-14.968 -3.4304,-6.5668 -6.8076,-14.135 -6.8076,-14.135 -11.905,-3.7185 -6.3392,-29.911 5.9628,-16.039 3.9028,4.9805 6.5806,10.149 5.9628,-2.1892 -1.3835,-6.9108 0.10892,-8.2855 0.84474,-11.137 7.7555,-1.4139 8.1532,-5.8611 11.081,-9.2567 5.0101,-4.424 9.3748,-8.355 17.317,-7.0675 10.714,7.4764 15.305,6.2028 19.305,6.8057 6.1685,0.39818 10.824,5.7339 13.342,10.328 1.8322,8.9632 1.942,12.15 4.3976,15.563"
       id="path3847" />
    <path
       inkscape:connector-curvature="0"
       style="fill:none;stroke:#000000;stroke-width:2.12599993;stroke-linecap:round"
       sodipodi:nodetypes="cccc"
       d="m 52.828,707.84 c 0.63559,-7.8519 3.6326,-6.3516 6.2468,-3.5354 1.3878,1.535 5.021,3.9896 -1.1358,4.0793 -2.7816,1.1785 -1.7611,2.9009 2.2716,4.0793"
       id="path3851" />
    <path
       inkscape:connector-curvature="0"
       style="fill:none;stroke:#000000;stroke-width:2.83459997"
       sodipodi:nodetypes="cccccc"
       d="m 75.43,750.43 0.65527,14.288 c 8.2331,14.833 24.122,17.55 32.355,23.626 0.72221,-6.3619 4.0415,-13.534 0.5465,-18.691 l -0.75879,-7.4346 c -10.714,-0.1928 -15.979,1.3615 -32.798,-11.788 z"
       id="path3853" />
    <path
       inkscape:connector-curvature="0"
       style="fill:none;stroke:#000000;stroke-width:2.83459997"
       sodipodi:nodetypes="csscccsssc"
       d="m 75.682,762.14 c -21.39,3.5885 -19.548,5.3101 -27.271,9.3037 -7.4738,3.8644 -3.6757,7.3379 -16.56,14.183 -4.2592,2.2629 -29.54,21.381 -21.254,47.129 -5.1112,-25.978 37.851,-30.141 35.726,-4.9993 5.6974,-7.0721 10.633,-15.064 10.633,-15.064 0,0 3.4255,-4.2494 0.83507,9.2475 -2.59043,13.4969 2.7335,29.428 -0.79728,47.287 -3.5307,17.859 -1.0796,27.984 2.1051,40.985 4.9415,20.173 31.707,16.29 16.454,10.763"
       id="path3855" />
    <path
       inkscape:connector-curvature="0"
       style="fill:none;stroke:#000000;stroke-width:2.83459997"
       sodipodi:nodetypes="cssccsscsc"
       d="m 108.76,763.92 c 10.592,-0.46024 20.705,3.925 29.023,5.2054 10.054,1.5476 2.2546,4.3019 13.557,4.1381 15.47,-0.22421 11.786,-0.97141 21.237,-0.0721 -7.9094,8.3475 -3.1069,29.984 0.13774,34.069 -13.52,-1.3209 2.1062,-1.7846 -17.656,-2.4244 -14.129,-0.45742 -8.4748,-0.20091 -12.696,-0.34127 -3.7328,-0.12412 -6.6877,-0.9599 -6.6877,-0.9599 2.3642,11.56 -4.5214,21.069 -2.4248,29.152 5.0489,19.467 2.6235,16.27 7.6865,43.333"
       id="path3857" />
    <path
       inkscape:connector-curvature="0"
       style="fill:none;stroke:#000000;stroke-width:2.83459997"
       sodipodi:nodetypes="ccccccccccccccccccccsssscsc"
       d="m 12.708,896.44 c 0.6367,7.0126 -0.32807,8.4831 3.1363,12.556 3.6785,5.0479 6.1964,10.381 5.9115,16.403 -2.5942,2.9294 6.582,8.3517 5.9241,-1.1047 1.2948,-6.7582 -3.1352,-10.172 -5.6403,-14.711 6.0661,8.7285 6.3702,9.6264 7.923,15.837 -1.7021,5.3096 5.7906,5.1681 5.8863,1.3669 0.69702,-3.9958 -2.7047,-11.504 -7.6931,-17.916 3.4969,5.5786 8.6646,10.062 10.185,16.936 -1.114,4.2744 7.4885,3.7791 5.7319,-1.4973 -1.8105,-6.5566 -7.0727,-11.394 -10.836,-16.952 4.1981,5.0064 8.0295,7.9426 11.682,15.497 0.603,6.2155 7.12,1.799 4.0138,-1.8398 -2.5338,-6.3786 -3.5833,-11.69 -7.9421,-14.802 l -5.7544,-10.983 c 1.5221,3.7885 4.182,4.6525 5.1637,6.2251 l 4.3102,4.4175 c 2.5679,2.4552 4.7727,2.6097 5.9042,-0.19247 -4.5295,-9.9908 -8.3526,-11.881 -12.124,-13.952 -2.1591,-1.5709 -4.2832,-3.2409 -6.9242,-3.4435 -1.5675,-0.26742 -2.0147,-3.0016 -3.8742,-2.3684 -0.46489,0.15828 3.0844,-5.1614 2.0439,-11.691 -1.0405,-6.5301 3.1412,-9.872 1.9112,-18.615 -1.23,-8.7434 14.746,-34.788 10.38,-39.689 -6.6536,-7.4704 -19.124,-5.9401 -25.5,-0.64613 -2.5187,2.2841 -9.6686,37.644 -9.7975,38.701 -0.44729,3.667 4.496,44.334 5.9782,42.465 z"
       id="path3859" />
    <path
       style="fill:none;stroke:#000000;stroke-width:2.83459997"
       inkscape:connector-curvature="0"
       inkscape:transform-center-y="-1.3033538"
       inkscape:transform-center-x="-3.4954714"
       d="m 37.071,836.82 c 3.9285,0.0335 8.9233,-8.516 9.3555,-10.298"
       sodipodi:nodetypes="cc"
       id="path3861" />
    <path
       inkscape:connector-curvature="0"
       style="fill:none;stroke:#000000;stroke-width:2.83459997"
       sodipodi:nodetypes="cccccccccccccccscc"
       d="m 171.76,774.07 43.17,3.2373 11.958,-2.0071 c 8.5572,-2.09 14.505,-0.20213 22.489,10e-6 6.3799,1.4355 6.8584,4.6254 0.4785,6.6989 l -18.9,-0.71774 18.422,0.71774 c 5.7419,1.4355 5.7419,4.7849 0,6.2204 l -11.962,-0.23925 -10.288,-0.71775 7.8951,4.3064 4.7849,0.23925 c 5.3034,-0.0115 9.1758,4.795 -0.47849,5.9812 -3.7957,0.3224 -5.0893,1.9092 -11.875,0.43745 -1.6001,-0.40897 -5.8053,2.1186 -9.2946,-2.0686 -0.91059,-0.83661 -3.2291,-0.58447 -5.1972,-0.23598 -1.5066,0.26679 -41.768,2.7219 -42.968,3.6241 -2.326,-4.4164 -2.5433,-18.442 1.7666,-25.476 z"
       id="path3863" />
    <path
       inkscape:connector-curvature="0"
       style="fill:none;stroke:#000000;stroke-width:2.83459997"
       sodipodi:nodetypes="cc"
       d="m 172.34,773.18 c 1.3542,-0.1992 2.8888,-0.80438 3.3835,0.93046"
       id="path3865" />
    <path
       inkscape:connector-curvature="0"
       style="fill:none;stroke:#000000;stroke-width:2.83459997"
       sodipodi:nodetypes="cc"
       d="m 173.04,807.43 c 3.025,1.7989 3.2908,-7.7023 2.5207,-9.5583"
       id="path3867" />
    <path
       inkscape:connector-curvature="0"
       style="fill:none;stroke:#000000;stroke-width:2.83459997"
       sodipodi:nodetypes="cc"
       d="m 239.17,788.49 c 6.9538,7.9919 9.8225,2.9253 7.2744,-0.25376"
       id="path3869" />
    <path
       inkscape:connector-curvature="0"
       style="fill:none;stroke:#000000;stroke-width:2.83459997"
       sodipodi:nodetypes="ccccccc"
       d="m 115.23,928.79 c 8.6031,-1.8833 13.292,-3.1675 34.102,-14.771 15.09,20.23 18.866,7.6732 28.441,24.136 6.1285,7.5793 16.84,-4.0073 11.726,-15.095 -21.206,-24.569 -17.354,-47.13 -36.764,-44.454 -23.434,-4.4895 -17.363,-2.0903 -39.521,0.43745 -17.528,14.969 0.61623,39.062 2.0158,49.746 z"
       id="path3871" />
    <path
       inkscape:connector-curvature="0"
       style="fill:none;stroke:#000000;stroke-width:2.83459997"
       sodipodi:nodetypes="cccccccc"
       d="m 120.05,877.77 c 0,0 -2.2966,-3.924 -17.171,-2.871 -3.8144,-3.7066 -11.867,9.6823 -18.189,8.4827 -4.1955,17.277 -12.93,8.3777 -15.835,33.665 15.113,10.675 39.454,17.231 46.049,16.342 9.0728,-7.1823 4.1879,-5.3873 0.14994,-5.0778 -1.8134,-12.011 -18.042,-33.444 -2.9513,-49.102 4.3247,-1.782 5.7612,-0.88054 7.9463,-1.4395 z"
       id="path3873" />
    <path
       inkscape:connector-curvature="0"
       style="fill:none;stroke:#000000;stroke-width:2.83459997"
       sodipodi:nodetypes="ccccccccc"
       d="m 107.3,932.76 c -1.7539,14.386 4.4548,17.12 4.3985,29.808 -9.9049,6.7151 2.8343,17.431 -7.4744,36.85 5.3975,6.9793 10.795,6.3954 16.193,2.5696 12.281,-23.963 22.156,-26.313 22.502,-35.8 -0.37474,-20.881 7.7063,-32.338 1.0973,-49.002 -10.203,5.1884 -15.5,7.4076 -23.312,10.803 -0.64309,1.4095 -3.7442,3.1779 -5.721,5.4785 -2.3117,-0.0439 -4.0015,0.10933 -7.6834,-0.70656 z"
       id="path3875" />
    <path
       inkscape:connector-curvature="0"
       style="fill:none;stroke:#000000;stroke-width:2.83459997"
       sodipodi:nodetypes="ccccccc"
       d="m 106.04,996.06 c -2.3812,-2.2043 -4.5093,2.3605 -7.782,3.7218 -10.866,6.145 0.24495,12.027 18.271,32.82 11.33,16.169 28.134,13.518 20.639,-3.7218 -3.3407,-9.77 -8.3895,-19.327 -16.241,-26.391 -4.9822,0.6928 -7.8232,6.9529 -16.917,-3.0451 z"
       id="path3877" />
    <path
       inkscape:connector-curvature="0"
       style="fill:none;stroke:#000000;stroke-width:2.83459997"
       sodipodi:nodetypes="ccssccc"
       d="m 182.1,948.01 c 3.5944,4.4323 4.1254,7.9326 7.4436,8.4587 0.34507,20.438 25.306,11.349 25.038,-4.7368 -0.095,-5.6893 6.4687,-15.545 6.0902,-26.391 -1.1956,-34.267 -35.942,-25.09 -30.789,-3.7218 3.3974,8.2712 -2.1763,24.169 -11.842,17.594 z"
       id="path3879" />
    <path
       inkscape:connector-curvature="0"
       style="fill:none;stroke:#000000;stroke-width:2.12599993"
       sodipodi:nodetypes="ccccc"
       d="m 200.37,926.02 c -8.2242,-16.696 19.797,-33.141 16.917,2.0301 -2.6486,13.373 -5.0638,14.427 -6.0902,22.669 3.3835,10.691 -18.271,25.263 -15.226,5.4135 0.96653,-8.4265 7.4808,-17.801 4.3985,-30.113 z"
       id="path3881" />
    <path
       inkscape:connector-curvature="0"
       style="fill:none;stroke:#000000;stroke-width:2.12599993"
       sodipodi:nodetypes="ccc"
       d="m 70.333,763.7 c 3.0803,15.606 27.175,20.642 40.263,30.789 7.8395,-25.87 0.90226,-20.414 1.3534,-30.451"
       id="path3949" />
    <path
       inkscape:connector-curvature="0"
       style="fill:none;stroke:#000000;stroke-width:2.12599993"
       sodipodi:nodetypes="cc"
       d="m 167.44,773.18 c -6.4636,13.775 -5.0247,25.007 -1.8947,31.805"
       id="path3951" />
    <path
       inkscape:connector-curvature="0"
       style="fill:none;stroke:#000000;stroke-width:2.12599993"
       sodipodi:nodetypes="cc"
       d="m 8.4158,821.22 c 13.551,-28.34 43.718,-10.17 40.635,3.08"
       id="path3953" />
    <path
       inkscape:connector-curvature="0"
       style="fill:none;stroke:#000000;stroke-width:2.12599993"
       sodipodi:nodetypes="ccccccccc"
       d="m 76.303,897.63 c 8.9565,10.775 22.693,14.986 34.782,19.049 l -2.0639,-4.906 -7.8835,-3.0451 6.1917,-1.9962 -0.54135,-4.906 -6.5639,2.1992 c -6.763,1.49 -12.82,-4.7 -19.587,-11.17 z"
       id="path3955" />
    <path
       inkscape:connector-curvature="0"
       style="fill:none;stroke:#000000;stroke-width:2.12599993"
       sodipodi:nodetypes="ccccccc"
       d="m 98.189,1000.6 c -0.80104,4.0073 0.12211,7.9112 3.3402,10.579 l 18.943,19.948 c 3.4161,4.6165 3.339,6.8754 15.51,11.062 -5.4551,2.3895 -11.404,-0.1587 -17.752,-6.6989 -8.1467,-10.615 -14.731,-17.064 -21.604,-24.284 -4.5315,-7.881 -0.86122,-9.6815 1.5631,-10.607 z"
       id="path3973" />
    <path
       inkscape:connector-curvature="0"
       style="fill:none;stroke:#000000;stroke-width:2.12599993;stroke-linecap:round"
       sodipodi:nodetypes="cc"
       d="m 122.92,1010.2 c 2.7879,3.6303 7.1818,10.561 8.2062,15.073"
       id="path3975" />
    <path
       inkscape:connector-curvature="0"
       style="fill:none;stroke:#000000;stroke-width:2.12599993"
       sodipodi:nodetypes="ccccc"
       d="m 106.7,1016.2 c 2.676,-1.8754 6.7886,-2.7636 10.355,-3.3029 0.26097,1.3272 0.93617,2.7955 2.0097,4.5218 -3.4312,-0.1895 -5.6513,1.5889 -8.8202,2.8563 z"
       id="path3977" />
    <path
       inkscape:connector-curvature="0"
       style="fill:none;stroke:#000000;stroke-width:2.12599993"
       sodipodi:nodetypes="ccccc"
       d="m 112.73,1022.8 c 2.676,-1.8754 4.779,-1.9169 8.3457,-2.4563 0.26097,1.3273 1.634,2.8514 2.3725,3.9078 -3.7662,0.9828 -4.0045,1.1795 -7.1734,2.4469 z"
       id="path3977-7" />
    <path
       inkscape:connector-curvature="0"
       style="fill:none;stroke:#000000;stroke-width:2.12599993;stroke-linecap:round"
       sodipodi:nodetypes="cc"
       d="m 203.3,913.85 8.2755,-3.1532"
       id="path3997" />
    <path
       inkscape:connector-curvature="0"
       style="fill:none;stroke:#000000;stroke-width:2.12599993;stroke-linecap:round"
       sodipodi:nodetypes="cc"
       d="m 202.01,918.65 11.354,-4.1006"
       id="path3997-6" />
    <path
       inkscape:connector-curvature="0"
       style="fill:none;stroke:#000000;stroke-width:2.12599993;stroke-linecap:round"
       sodipodi:nodetypes="cc"
       d="m 202.72,922.91 11.828,-3.8638"
       id="path3997-5" />
    <path
       inkscape:connector-curvature="0"
       style="fill:none;stroke:#000000;stroke-width:2.12599993;stroke-linecap:round"
       sodipodi:nodetypes="cc"
       d="m 203.9,927.18 10.644,-3.6269"
       id="path3997-8" />
    <path
       inkscape:connector-curvature="0"
       style="fill:none;stroke:#000000;stroke-width:2.12599993;stroke-linecap:round"
       sodipodi:nodetypes="cc"
       d="m 203.9,932.62 10.644,-3.8638"
       id="path3997-2" />
    <path
       inkscape:connector-curvature="0"
       style="fill:none;stroke:#000000;stroke-width:2.12599993;stroke-linecap:round"
       sodipodi:nodetypes="cc"
       d="m 203.19,937.6 9.9334,-3.6269"
       id="path3997-66" />
    <path
       inkscape:connector-curvature="0"
       style="fill:none;stroke:#000000;stroke-width:2.12599993;stroke-linecap:round"
       sodipodi:nodetypes="cc"
       d="m 201.77,942.34 10.17,-3.6269"
       id="path3997-57" />
    <path
       inkscape:connector-curvature="0"
       style="fill:none;stroke:#000000;stroke-width:2.12599993;stroke-linecap:round"
       sodipodi:nodetypes="cc"
       d="m 201.53,946.6 8.2755,-3.1532"
       id="path3997-1" />
    <path
       inkscape:connector-curvature="0"
       style="fill:none;stroke:#000000;stroke-width:2.12599993;stroke-linecap:round"
       sodipodi:nodetypes="cc"
       d="m 200.35,951.57 8.2755,-3.1532"
       id="path3997-67" />
    <path
       inkscape:connector-curvature="0"
       style="fill:none;stroke:#000000;stroke-width:2.12599993;stroke-linecap:round"
       sodipodi:nodetypes="cc"
       d="m 198.22,957.02 10.881,-4.1006"
       id="path3997-3" />
    <path
       inkscape:connector-curvature="0"
       style="fill:none;stroke:#000000;stroke-width:2.12599993;stroke-linecap:round"
       sodipodi:nodetypes="cc"
       d="m 198.69,961.05 9.4597,-3.3901"
       id="path3997-59" />
    <g
       style="stroke-miterlimit:10"
       transform="matrix(0.63828988,0,0,0.63828988,60.590536,418.37763)"
       clip-rule="evenodd"
       stroke-miterlimit="10"
       id="g5190">
      <path
         i:knockout="Off"
         inkscape:connector-curvature="0"
         d="m 245.5,659.07 c 29.152,0 52.813,22.531 52.813,50.292 0,27.76 -23.66,50.292 -52.813,50.292 -29.153,0 -52.812,-22.532 -52.812,-50.292 0,-27.761 23.66,-50.292 52.812,-50.292"
         style="fill-rule:evenodd;stroke:#000000;stroke-width:0.035433;stroke-miterlimit:10"
         id="path5119" />
      <path
         i:knockout="Off"
         inkscape:connector-curvature="0"
         d="m 217.92,670.27 c -1.548,0.648 -2.664,1.332 -3.78,2.196 -1.116,0.756 -1.908,1.692 -2.664,2.664 -0.864,0.9 -1.584,1.872 -2.16,2.916 l 7.128,-1.836 c 0.468,-1.98 0.972,-3.96 1.476,-5.94 z"
         style="fill:#ffffff;fill-rule:evenodd;stroke:#000000;stroke-width:0.035433;stroke-miterlimit:10"
         id="path5121" />
      <path
         i:knockout="Off"
         inkscape:connector-curvature="0"
         d="m 225.56,667.14 15.984,-3.888 11.016,9.108 -2.916,11.628 -12.24,5.688 -15.48,-4.104 -2.304,-9.468 5.94,-8.964 z"
         style="fill:#ffffff;fill-rule:evenodd;stroke:#000000;stroke-width:0.035433;stroke-miterlimit:10"
         id="path5123" />
      <path
         i:knockout="Off"
         inkscape:connector-curvature="0"
         d="m 256.01,673.08 -1.943,11.016 12.131,12.132 12.96,-1.944 3.996,-14.544 -14.184,-11.628 -12.96,4.968 z"
         style="fill:#ffffff;fill-rule:evenodd;stroke:#000000;stroke-width:0.035433;stroke-miterlimit:10"
         id="path5125" />
      <path
         i:knockout="Off"
         inkscape:connector-curvature="0"
         d="m 268.72,700.33 12.24,-2.196 7.272,12.24 -10.044,16.596 -12.6,-1.188 -4.607,-10.549 7.739,-14.903 z"
         style="fill:#ffffff;fill-rule:evenodd;stroke:#000000;stroke-width:0.035433;stroke-miterlimit:10"
         id="path5127" />
      <path
         i:knockout="Off"
         inkscape:connector-curvature="0"
         d="m 287.15,734.96 -5.832,-6.768 10.188,-17.209 3.528,-1.943 c 0.036,4.176 -0.288,7.703 -0.972,11.268 -0.828,3.527 -2.053,6.732 -3.276,9.324 -1.223,2.447 -2.34,4.176 -3.636,5.328 z"
         style="fill:#ffffff;fill-rule:evenodd;stroke:#000000;stroke-width:0.035433;stroke-miterlimit:10"
         id="path5129" />
      <path
         i:knockout="Off"
         inkscape:connector-curvature="0"
         d="m 226.56,722.47 14.436,-10.656 16.236,4.248 5.184,12.205 -8.964,11.771 -20.232,-4.248 -6.66,-13.32 z"
         style="fill:#ffffff;fill-rule:evenodd;stroke:#000000;stroke-width:0.035433;stroke-miterlimit:10"
         id="path5131" />
      <path
         i:knockout="Off"
         inkscape:connector-curvature="0"
         d="m 257.63,756.17 c -2.988,0.434 -6.012,0.756 -9.216,0.828 -3.312,0.072 -6.84,0 -10.044,-0.359 -3.42,-0.504 -6.588,-1.404 -9.36,-2.305 -2.772,-0.971 -4.896,-2.051 -6.768,-3.383 l -0.252,-4.861 9.576,-7.271 21.457,3.781 6.155,9.432 -1.548,4.138 z"
         style="fill:#ffffff;fill-rule:evenodd;stroke:#000000;stroke-width:0.035433;stroke-miterlimit:10"
         id="path5133" />
      <path
         i:knockout="Off"
         inkscape:connector-curvature="0"
         d="m 206.98,702.78 13.212,-13.428 14.292,3.996 3.636,15.48 -14.904,11.521 -12.96,-0.361 -3.276,-17.208 z"
         style="fill:#ffffff;fill-rule:evenodd;stroke:#000000;stroke-width:0.035433;stroke-miterlimit:10"
         id="path5135" />
      <path
         i:knockout="Off"
         inkscape:connector-curvature="0"
         d="m 202.12,730.18 c -1.152,0.467 -2.232,-0.758 -3.384,-3.277 -1.26,-2.736 -2.952,-8.244 -3.528,-12.348 -0.54,-4.141 -0.504,-8.172 0.252,-12.24 l 7.524,2.412 3.996,16.705 -4.86,8.748 z"
         style="fill:#ffffff;fill-rule:evenodd;stroke:#000000;stroke-width:0.035433;stroke-miterlimit:10"
         id="path5137" />
    </g>
  </g>
  <metadata
     id="metadata64">
    <rdf:RDF>
      <cc:Work>
        <dc:format>image/svg+xml</dc:format>
        <dc:type
           rdf:resource="http://purl.org/dc/dcmitype/StillImage" />
        <cc:license
           rdf:resource="http://creativecommons.org/licenses/publicdomain/" />
        <dc:publisher>
          <cc:Agent
             rdf:about="http://openclipart.org/">
            <dc:title>Openclipart</dc:title>
          </cc:Agent>
        </dc:publisher>
        <dc:title>Soccer playing boy</dc:title>
        <dc:date>2012-05-22T14:32:07</dc:date>
        <dc:description>A soccer playing boy</dc:description>
        <dc:source>https://openclipart.org/detail/170154/soccer-playing-boy-by-frankes</dc:source>
        <dc:creator>
          <cc:Agent>
            <dc:title>frankes</dc:title>
          </cc:Agent>
        </dc:creator>
        <dc:subject>
          <rdf:Bag>
            <rdf:li>FuÃŸball</rdf:li>
            <rdf:li>boy</rdf:li>
            <rdf:li>coloring book</rdf:li>
            <rdf:li>game</rdf:li>
            <rdf:li>junge</rdf:li>
            <rdf:li>lineart</rdf:li>
            <rdf:li>play</rdf:li>
            <rdf:li>soccer</rdf:li>
            <rdf:li>spiel</rdf:li>
            <rdf:li>spielen</rdf:li>
          </rdf:Bag>
        </dc:subject>
      </cc:Work>
      <cc:License
         rdf:about="http://creativecommons.org/licenses/publicdomain/">
        <cc:permits
           rdf:resource="http://creativecommons.org/ns#Reproduction" />
        <cc:permits
           rdf:resource="http://creativecommons.org/ns#Distribution" />
        <cc:permits
           rdf:resource="http://creativecommons.org/ns#DerivativeWorks" />
      </cc:License>
    </rdf:RDF>
  </metadata>
</svg>
