<?xml version="1.0" encoding="UTF-8" standalone="no"?>
<!-- Created with Inkscape (http://www.inkscape.org/) -->

<svg
   xmlns:dc="http://purl.org/dc/elements/1.1/"
   xmlns:cc="http://creativecommons.org/ns#"
   xmlns:rdf="http://www.w3.org/1999/02/22-rdf-syntax-ns#"
   xmlns:svg="http://www.w3.org/2000/svg"
   xmlns="http://www.w3.org/2000/svg"
   xmlns:sodipodi="http://sodipodi.sourceforge.net/DTD/sodipodi-0.dtd"
   xmlns:inkscape="http://www.inkscape.org/namespaces/inkscape"
   width="210mm"
   height="297mm"
   id="svg4200"
   version="1.1"
   inkscape:version="0.48.5 r10040"
   sodipodi:docname="marteauClou.svg">
  <defs
     id="defs4202">
    <filter
       inkscape:collect="always"
       color-interpolation-filters="sRGB"
       height="2.6772"
       x="-.024707"
       y="-.83858"
       width="1.0494"
       id="filter10444">
      <feGaussianBlur
         inkscape:collect="always"
         stdDeviation="0.61767773"
         id="feGaussianBlur10446" />
    </filter>
    <filter
       inkscape:collect="always"
       color-interpolation-filters="sRGB"
       height="1.0124"
       x="-.198"
       y="-.0061875"
       width="1.396"
       id="filter10426">
      <feGaussianBlur
         inkscape:collect="always"
         stdDeviation="0.825"
         id="feGaussianBlur10428" />
    </filter>
    <marker
       style="overflow:visible"
       id="Arrow1Mend"
       refX="0"
       refY="0"
       orient="auto"
       inkscape:stockid="Arrow1Mend">
      <path
         inkscape:connector-curvature="0"
         transform="matrix(-0.4,0,0,-0.4,-4,0)"
         style="fill-rule:evenodd;stroke:#000000;stroke-width:1pt"
         d="M 0,0 5,-5 -12.5,0 5,5 0,0 z"
         id="path4734" />
    </marker>
    <marker
       style="overflow:visible"
       id="marker3517"
       refX="0"
       refY="0"
       orient="auto"
       inkscape:stockid="Arrow1Mend">
      <path
         inkscape:connector-curvature="0"
         transform="matrix(-0.4,0,0,-0.4,-4,0)"
         style="fill-rule:evenodd;stroke:#000000;stroke-width:1pt"
         d="M 0,0 5,-5 -12.5,0 5,5 0,0 z"
         id="path3519" />
    </marker>
    <marker
       style="overflow:visible"
       id="Arrow1Mend2"
       refX="0"
       refY="0"
       orient="auto"
       inkscape:stockid="Arrow1Mend2">
      <path
         inkscape:connector-curvature="0"
         transform="matrix(-0.4,0,0,-0.4,-4,0)"
         style="fill:#ff0000;fill-rule:evenodd;stroke:#ff0000;stroke-width:1pt"
         d="M 0,0 5,-5 -12.5,0 5,5 0,0 z"
         id="path5170" />
    </marker>
    <marker
       style="overflow:visible"
       id="marker3523"
       refX="0"
       refY="0"
       orient="auto"
       inkscape:stockid="Arrow1Mend2">
      <path
         inkscape:connector-curvature="0"
         transform="matrix(-0.4,0,0,-0.4,-4,0)"
         style="fill:#ff0000;fill-rule:evenodd;stroke:#ff0000;stroke-width:1pt"
         d="M 0,0 5,-5 -12.5,0 5,5 0,0 z"
         id="path3525" />
    </marker>
  </defs>
  <sodipodi:namedview
     id="base"
     pagecolor="#ffffff"
     bordercolor="#666666"
     borderopacity="1.0"
     inkscape:pageopacity="0.0"
     inkscape:pageshadow="2"
     inkscape:zoom="1.4"
     inkscape:cx="376.42857"
     inkscape:cy="720"
     inkscape:document-units="px"
     inkscape:current-layer="layer1"
     showgrid="true"
     showguides="true"
     inkscape:guide-bbox="true"
     inkscape:snap-grids="false"
     inkscape:window-width="1280"
     inkscape:window-height="976"
     inkscape:window-x="0"
     inkscape:window-y="24"
     inkscape:window-maximized="1">
    <inkscape:grid
       type="xygrid"
       id="grid4208"
       empspacing="5"
       visible="true"
       enabled="true"
       snapvisiblegridlinesonly="true" />
    <sodipodi:guide
       orientation="1,0"
       position="150,900"
       id="guide4312" />
  </sodipodi:namedview>
  <metadata
     id="metadata4205">
    <rdf:RDF>
      <cc:Work
         rdf:about="">
        <dc:format>image/svg+xml</dc:format>
        <dc:type
           rdf:resource="http://purl.org/dc/dcmitype/StillImage" />
        <dc:title></dc:title>
      </cc:Work>
    </rdf:RDF>
  </metadata>
  <g
     inkscape:label="Calque 1"
     inkscape:groupmode="layer"
     id="layer1">
    <g
       transform="matrix(0.06982382,0.29928685,-0.29928685,0.06982382,363.06224,179.9869)"
       inkscape:label="Layer 1"
       id="layer1-8">
      <g
         transform="matrix(0.22979,-0.97324,0.97324,0.22979,-142.35,1034.4)"
         id="g10761">
        <path
           transform="translate(141.8,172.49)"
           inkscape:connector-curvature="0"
           sodipodi:nodetypes="cccccccccc"
           d="m 470,16 20,4 v 320 l 10,20 10,-20 V 20 l 20,-4 V 2 c -20,-2.4316 -40,-2.2814 -60,0 v 14 z"
           style="fill:#333333;stroke:#000000;stroke-width:1px"
           id="path10763" />
        <path
           transform="translate(141.8,172.49)"
           d="m 490,340 h 10 v 20 z"
           inkscape:connector-curvature="0"
           style="fill:#cccccc;stroke:#000000;stroke-width:1px"
           id="path10765" />
        <path
           transform="translate(141.8,172.49)"
           d="m 500,340 h 10 l -10,20 z"
           inkscape:connector-curvature="0"
           style="fill:#f9f9f9;stroke:#000000;stroke-width:1px"
           id="path10767" />
        <path
           d="m 649.8,192.49 c -3.3333,1.3137 -6.6667,2.2804 -10,10 v 300 c 2.7186,9.481 6.3617,9.7167 10,10 z"
           inkscape:connector-curvature="0"
           style="fill:#ffffff;filter:url(#filter10426)"
           sodipodi:nodetypes="ccccc"
           id="path10769" />
        <path
           transform="translate(141.8,172.49)"
           inkscape:connector-curvature="0"
           sodipodi:nodetypes="cc"
           d="m 470,5 c 20,2.3776 40,2.3363 60,0"
           style="fill:none;stroke:#ffffff;stroke-width:3;filter:url(#filter10444)"
           id="path10771" />
      </g>
    </g>
    <g
       transform="matrix(0.27574734,0,0,0.27574734,267.12428,175.15601)"
       inkscape:label="Calque 1"
       id="layer1-9"
       style="stroke:#808080">
      <path
         d="m -110.61,323.12 c -33.582,0.12476 -73.211,-14.678 -61.845,-55.986 -1.6518,-69.742 -1.0319,-139.58 2.595,-209.25 24.027,-18.001 51.334,-30.906 48.737,-66.676 16.724,-35.14 5.2552,-89.019 40.232,-111.3 13.836,-23.123 58.144,-21.86 56.308,11.669 9.9099,40.921 25.438,80.72 33.734,121.73 -4.6104,33.38 -9.4065,81.644 38.489,62.4 46.613,2.9207 95.204,0.2181 140.5,0.2 26.049,-2.3032 48.765,1.4904 72.777,-0.16447 64.978,-1.6792 131.42,-1.7639 194.72,-2.8355 27.47,0.42958 64.731,-1.4972 96.959,-1.0139 81.751,-0.04031 162.03,-2.2255 243.2,-5.2162 32.068,1.7813 67.835,-2.0616 102.63,-1.5331 34.882,2.3716 87.946,-15.912 102.28,28.593 12.739,31.71 6.0763,70.413 -13.295,98.338 -16.914,10.295 -29.164,8.5558 -23.776,0.88319 -7.6753,8.3564 -35.04,7.2191 -59.402,7.2133 -35.29,-1.0726 -73.242,2.2659 -106.69,-1.9433 -29.032,4.5636 -62.125,-1.4389 -93.048,1.6371 -22.73,2.4514 -30.984,-6.4462 -50.932,-0.0412 -30.931,-0.15918 -60.047,-1.4215 -89.771,-1.6724 -50.046,-1.2832 -103.76,1.1356 -151.7,-2.9944 -33.051,4.0098 -65.742,-0.0262 -98.178,0.0865 -54.482,-1.046 -112.85,-1.07 -165.07,-2.4799 -43.015,-0.16496 -89.011,-3.3963 -132.14,0.26615 -27.794,7.7943 10.49,74.466 -30.576,86.877 -24.326,27.772 -59.479,43.972 -96.75,43.216 z m -20.388,-10.716 c -0.62807,-5.5091 -3.4844,5.4232 0,0 z m 29.979,-2.75 c 22.809,0.97356 52.134,-12.765 14.409,-14.5 -10.306,5.1862 -95.645,-6.2415 -49.996,11.965 11.595,1.2453 24.059,5.8981 35.587,2.5347 z m 29.659,-17.75 c 35.485,2.3195 31.732,-87.184 -12.195,-67.02 -22.064,-4.4336 -53.973,3.3314 -71.622,-3.7302 9.3548,-6.5847 29.906,-0.50977 43.406,-2.4068 18.983,4.7148 88.045,-1.6554 33.601,-6.8278 -24.092,-2.8793 -55.349,1.783 -75.981,-5.0335 15.161,-8.2536 49.175,-0.51515 69.29,-1.9818 24.042,7.0909 48.631,-8.4806 14.1,-7.8437 -25.66,-5.4144 -65.796,7.7598 -82.352,-7.2015 33.602,-1.2594 67.687,1.7853 102.25,1.2969 -20.602,-19.209 -67.219,-4.6758 -95.465,-10.196 -36.802,-10.098 87.421,-4.1496 55.896,-4.7824 25.761,6.1063 57.748,-7.1908 14.258,-8.328 -22.133,-3.67 -66.697,5.4041 -76.744,-6.1994 30.059,-6.9127 81.142,7.4172 101.16,-3.746 -16.398,-9.7082 -37.494,-0.81565 -53.581,-4.7762 -18.948,3.7163 -74.624,-6.8861 -24.429,-6.3478 25.214,-3.573 55.663,8.1883 75.403,-2.769 -30.446,-8.0303 -62.79,-3.4044 -95.112,-6.8411 3.6279,-9.0831 50.799,-2.8579 69.404,-3.277 27.742,6.2881 33.736,-12.783 2.8952,-8.5005 -18.062,-2.3152 -75.478,4.2423 -72.243,-6.4754 30.004,-7.0682 79.777,11.332 97.305,-8.0282 15.408,-18.514 -42.138,-15.58 -55.092,-15.198 -22.766,2.0216 -71.196,-4.4636 -27.003,-5.724 22.814,-3.0073 74.068,8.6632 80.714,-5.547 -15.94,-6.9365 -37.558,1.0415 -58.32,-3.3392 -14.106,5.0773 -48.739,-10.25 -51.097,6.9867 0.04,66.954 -4.3136,134.51 -0.0898,201.06 28.186,0.48506 69.183,-0.59715 91.637,2.7776 z m -21.137,-10.47 c -11.557,-2.1919 -70.687,3.2429 -57.281,-6.4362 26.154,2.7766 79.583,-5.6618 89.669,6.1775 -10.773,0.56747 -21.61,0.85935 -32.387,0.25874 z m -28.862,-13.53 c -24.09,3.0225 -49.882,-10.489 -14.223,-7.3185 22.444,2.6474 76.587,-4.5284 74.547,8.3185 -18.919,-2.3985 -36.573,-0.0388 -56.824,-1 l -1.441,1 -2.059,-1 v 3e-5 z m -24.921,-14.695 c -28.07,-15.17 48.23,-1.919 61.206,-5.0474 8.2342,-1.8834 42.828,1.4908 21.244,5.7426 -27.931,-0.96717 -54.286,-0.15164 -81.866,-0.75 l -0.40764,0.69395 -0.17569,-0.63915 v -1e-5 z m 22.449,-14.106 c -21.393,1.225 -48.275,-10.806 -7.9096,-6.1992 18.254,1.1697 75.053,-6.06 72.347,6.5 -21.479,-0.0408 -42.962,0.14311 -64.438,-0.30081 z m -2.3174,-128.98 c -16.106,0.20766 -45.15,-5.6052 -7.6774,-6.2405 16.839,-1.794 90.691,3.3773 42.276,6.105 -11.53,0.29346 -23.067,0.40556 -34.599,0.13548 z m 57.569,-0.9689 c 15.413,-18.947 26.825,5.744 0,0 z m 28.221,164.19 c -5.8709,-18.003 -4.8613,6.5662 0,0 z m 20.382,-2.9929 c -0.9913,-3.6779 -2.0581,5.0909 0,0 z m -25.382,-5.4481 c -2.5549,-3.5874 -2.5549,3.5874 0,0 z m 7,-6 c -2.5549,-3.5874 -2.5549,3.5874 0,0 z m 6.8096,-8.75 c -3.2787,-6.1824 -3.2787,6.1824 0,0 z m 11.19,-12.25 c -3.9032,-3.6531 -3.9032,3.6531 0,0 z m -2.3958,-16.729 c -2.2533,0.93468 2.1015,3.9596 0,0 z m -14.604,-1.3298 c -4.3859,-3.7867 -2.1703,5.0757 0,0 z m 841,-23.34 c 3.7266,-8.326 -6.2716,4.8737 0,0 z m 83.725,-0.58333 c -2.8792,-6.9538 -1.9792,6.9916 0,0 z m 55.08,-1.0246 c -6.4842,-29.061 -14.126,10.142 0,0 z m -386.8,1.0836 c -1.8976,-5.0354 -3.1061,3.6266 0,0 z m 419.87,-4.1628 c -7.3384,-3.2901 2.4743,8.8827 0,0 z m -30.262,0.3746 c -2.2536,0.93472 2.1016,3.9596 0,0 z m -490.6,0.72917 c -2.5549,-3.5874 -2.5549,3.5874 0,0 z m 342.48,-2.6622 c -7.6417,-6.7408 2.6184,10.497 0,0 z m 10.881,2.1622 c -0.86537,-5.2821 -2.3735,5.247 0,0 z m 44.638,0.5 c -2.5549,-3.5874 -2.5549,3.5874 0,0 z m 100.52,-3.8161 c -6.649,-0.0407 -3.2442,10.418 0,0 z m -183.42,1.0661 c 17.188,1.5212 -2.276,-15.482 -2.0981,2.6301 l 2.0981,-2.6301 z m -322.1,-0.75 c -2.4793,-5.269 -2.4793,5.269 0,0 z m 22,0 c 15.182,-18.119 -13.808,7.2583 0,0 z m 321,0.51905 c -7.4266,-10.2 -10.621,3.8844 0,0 z m 174.01,-1.5393 c 2.2271,-12.371 -10.576,10.192 0,0 z m -506.15,-2.3602 c -5.4094,-1.4931 -0.73747,6.1939 0,0 z m 299.15,-0.92857 c 10.18,-5.4463 39.082,-6.6186 4.3372,-6.217 -26.074,-2.3111 -55.586,-1.5784 -82.731,-1.6809 -40.457,0.63481 18.379,8.5158 24.313,2.7047 13.271,7.2787 48.131,-4.5917 54.081,5.1932 z m 109.51,2.0022 c -4.3498,1.1878 -1.9332,2.8301 0,0 z m -347.03,-3.1931 c 14.352,-5.1971 67.901,-8.3929 26.886,-7.5502 -29.241,-2.9086 -53.693,-0.69224 -78.386,-0.44978 -18.094,-2.2518 -37.033,-0.0246 -55,-1 -20.971,0.0436 -41.352,0.64742 -63.877,-1.1371 -30.418,3.0928 -62.027,-2.3745 -94.977,1.1984 -55.227,-1.7462 -113.9,-3.124 -169.96,-0.41136 35.132,2.3338 72.152,3.6462 106.63,2.1704 24.504,2.1816 43.579,0.92433 70.467,2.185 40.651,0.64031 77.851,-2.6733 118.06,2.2384 15.804,-8.0937 52.001,6.6672 51.126,-1.2438 18.119,-4.3438 52.839,6.3569 57.535,-0.073 9.0571,2.9261 23.353,1.1831 31.5,4.073 z m 278.5,3.0818 c -2.7273,-10.84 -9.5354,2.9188 0,0 z m 28.5,-0.0818 c 11.816,-9.2715 -14.366,-23.871 16.874,-18.842 8.1623,5.9712 83.55,-4.3224 28.582,-3.2233 -26.224,-0.27706 -52.45,-0.27787 -78.675,-0.40349 -0.99743,-5.5453 -46.092,-1.2826 -15.077,-4.9045 10.992,-5.439 24.785,-0.54352 39.222,-3.5652 28.442,2.2873 31.136,1.7477 56.27,1.665 12.036,-1.1338 33.193,17.29 40.033,12.462 20.713,-1.8858 37.759,-1.1182 14.879,-6.8494 -2.4612,-2.6218 -37.125,1.3125 -51.609,-13.839 3.1334,-8.6949 40.603,-2.1508 52,-4.5 40.489,-7.8656 -37.22,-8.1041 -51.834,-7.1439 -43.084,-7.9595 29.899,-3.7641 41.834,-4.8561 30.254,9.7122 20.424,-13.234 33.202,-31 10.339,11.267 -1.3662,15.993 11.162,23.527 3.9508,-15.55 -2.4798,-42.093 7.958,-8.9015 5.0378,33.375 2.7751,-19.034 15.519,-22.752 -4.7814,-29.846 -27.98,-13.644 -34.755,7.1273 -31.999,-12.58 -74.319,-0.61596 -109.03,-4.9723 -29.983,3.9545 -67.647,0.87089 -100.21,2.1568 -31.694,-3.2337 -13.343,8.4376 5.1332,11.071 -21.729,3.1649 -82.275,0.10847 -26.322,-1.9695 -14.428,-17.492 -78.602,-4.9449 -110.38,-7.9434 -28.275,8.2627 40.912,10.172 54.479,9.9078 -23.602,-0.75355 -41.805,6.3754 -7.605,11.987 26.589,5.9297 50.678,0.91297 77.266,3.0133 16.57,0.0572 39.623,-11.137 41.115,-6.8753 37.704,11.543 79.061,2.9068 118.07,3.5448 23.817,0.50057 41.52,4.9307 7.5716,4.1651 -26.385,3.0211 -73.73,-5.0286 -88.538,4.7046 15.667,-3.6908 69.306,17.832 47.99,22.629 -21.378,-0.43768 -22.762,-3.2255 -32.849,-2.1402 -20.497,3.4066 -37.577,-0.94838 -61.039,1.805 -32.102,3.0397 -13.985,3.4494 -2.5364,6.7951 -27.223,12.426 13.185,9.4367 28.304,11.122 35.164,-9.4394 21.718,17.452 0.75121,6.0173 -19.004,8.1638 8.5308,4.2377 17.705,4.7327 11.195,-3.9364 7.7638,9.3812 14.544,6.25 z m -7.4211,-12.417 c 0.44609,-4.3114 1.4435,2.6633 0,0 z m -44.079,-17.583 c 2.5549,-3.5874 2.5549,3.5874 0,0 z m 157,-34.729 c -43.827,-8.5194 8.4347,-9.0028 0,0 z m -168.56,-7.18 c -38.059,-13.625 24.067,-5.7095 0,0 z m 136.02,-0.04 c -45.039,-2.6409 -12.793,-19.149 0,0 z m -227.24,-4.7775 c -10.636,-5.2994 29.398,1.0966 0,0 z m 101.34,-1.1602 c 21.675,-6.183 25.561,5.1647 0,0 z m 28.678,-0.36504 c 16.435,0.0738 82.788,-7.1591 63.908,-0.70987 -21.322,-0.77908 -42.667,4.7317 -63.908,0.70987 z m 102.49,-1.4417 c 9.4414,-7.6071 40.155,3.5806 4.54,0.35872 l -4.54,-0.35872 z m -18.738,79.692 c -2.4662,-3.5623 -1.2094,3.6561 0,0 z m 32.254,-0.25 c -0.58898,-16.396 -6.4489,7.4276 0,0 z m -470.89,-2.28 c -4.5214,-5.6052 0.36204,6.4884 0,0 z m 281.18,0.5757 c -5.5398,-1.7333 -3.5417,3.261 0,0 z m -118.47,-2.151 c 2.5041,-12.148 -7.5747,8.0593 0,0 z m -454.45,-2.6218 c -2.2533,0.93468 2.1015,3.9596 0,0 z m 711.06,1.2958 c 1.3029,-11.664 -13.779,2.2642 0,0 z m 111.33,-0.16 c -3.3759,-4.458 -3.5473,5.3259 0,0 z m -121.7,-0.0482 c 3.1808,-19.839 -19.133,3.2681 0,0 z m 96.702,-0.92749 c -4.0484,-1.9154 -2.393,3.4144 0,0 z m -366.42,-1.441 c 10.791,-5.5536 -37.891,0.84759 0,0 z m 398.4,-1.75 c -0.90137,-7.1096 -3.1153,9.074 0,0 z m -986.98,0.75 c -5.4656,-3.6609 -3.7205,3.7552 0,0 z m 618,0 c -3.9032,-3.6531 -3.9032,3.6531 0,0 z m 295,-0.55902 c -2.8802,-1.9056 -2.3337,3.4348 0,0 z m -940.56,-3.1561 c -4.4539,-5.5336 -7.2677,7.4351 0,0 z m 635.16,1.1333 c -2.1508,-7.601 -3.8418,5.4243 0,0 z m 322.2,-0.94467 c -2.8301,1.9331 -1.1878,4.3497 0,0 z m 29.709,-3.9219 c -4.9788,-22.989 -4.3296,21.268 0,0 z m 10.484,4.8894 c -2.8802,-1.9056 -2.3337,3.4348 0,0 z m -1010,-0.38 c -1.8976,-5.0354 -3.1061,3.6266 0,0 z m 106.54,0.0125 c -1.163,-6.5824 -17.72,2.9215 0,0 z m 608.46,-0.0715 c -2.5549,-3.5874 -2.5549,3.5874 0,0 z m 89,-0.059 c -2.8802,-1.9056 -2.3337,3.4348 0,0 z m 71,-0.441 c -2.3735,-5.247 -0.86537,5.2821 0,0 z m 7,-0.059 c -2.8802,-1.9056 -2.3337,3.4348 0,0 z m 3.5,0.559 c -2.4662,-3.5623 -1.2094,3.6561 0,0 z m -848.79,-2.6208 c -8.2632,-8.5797 -16.702,7.6836 0,0 z m 394.47,1.94 c -4.3834,-1.4324 -0.43359,1.9249 0,0 z m -357.6,-1.18 c -8.2689,-1.6849 -6.5338,3.0067 0,0 z m 18.605,0.18278 c -4.3834,-1.4324 -0.43359,1.9249 0,0 z m 31,0 c -4.3834,-1.4324 -0.43359,1.9249 0,0 z m 459.82,-0.38 c -2.8802,-1.9056 -2.3337,3.4348 0,0 z m 323.35,-0.48411 c -3.2041,-3.938 1.094,4.9581 0,0 z m 5.6549,0.0431 c -2.3777,-5.3997 -3.5052,5.2925 0,0 z m -907,-0.5 c -6.5773,-3.7014 -6.5773,3.7014 0,0 z m 459.5,0 c -2.5632,-3.7039 -3.8443,3.5852 0,0 z m 169.5,0 c -2.4663,-3.5623 -1.2094,3.6562 0,0 z m 151.5,0 c -2.5632,-3.7039 -3.8443,3.5852 0,0 z m 83.5,-0.059 c -2.8802,-1.9056 -2.3337,3.4348 0,0 z m -409,-2.941 c -2.5549,-3.5874 -2.5549,3.5874 0,0 z m 32.373,-0.52892 c 15.324,-0.93651 69.091,-3.2609 24.933,-6.6577 -19.919,3.3148 -48.962,-5.8694 -11.627,-5.7801 32.974,-2.2493 67.956,2.8809 97.459,0.18457 22.981,2.3574 89.902,-5.0257 82.362,6.7822 -14.646,-2.016 -71.321,0.78891 -27.255,4.448 19.476,3.3597 39.732,-0.50318 41.771,-8.9308 7.6255,22.679 44.738,1.664 62.925,11.483 21.552,1.5191 42.504,-9.7362 7.2856,-5.7603 -17.493,-2.6526 -69.045,2.4719 -62.902,-6.5418 14.24,-1.5878 26.742,-0.6181 42.735,0.30208 7.9242,-2.4102 22.894,-0.0865 33.941,-1 -1.3561,-13.702 -30.796,-12.139 -43.97,-19.13 -23.485,-5.1577 -15.004,-0.29798 -29.055,-11.888 -15.72,-4.6769 -41.411,4.0792 -28.1,-6.657 -31.736,-6.2886 -53.682,-25.151 -87.583,-20.062 -11.821,3.0367 -31.606,-1.653 -37.541,1.7223 1.6435,10.85 31.778,7.684 42.25,8.0153 4.4455,8.6521 41.384,19.945 59.172,14.021 42.3,-1.1808 -52.688,8.3882 -3.9276,11.168 15.384,7.8956 36.495,23.322 0.56728,16.295 -28.526,0.44717 -59.644,1.4876 -89.542,-1.1847 -58.629,-25.513 23.69,-15.869 47.342,-17.373 48.027,2.0474 -29.9,-23.567 -45.311,-20.644 -25.052,-8.0654 -55.211,-15.103 -90.178,-10.16 -53.905,5.8657 29.861,12.339 42.127,6.8941 21.391,1.0932 34.936,2.1561 -1.1745,3.0607 -16.668,-0.16592 -62.07,1.4161 -19.464,8.7188 16.836,-2.1212 57.303,22.09 16.951,17.15 -14.336,4.449 -81.27,-7.7314 -70.624,6.1376 22.633,-0.52564 48.366,1.0856 18.482,11.662 21.75,-2.4547 3.5174,19.386 27.952,13.727 z m 195.63,-17.4 c -14.154,-12.652 17.057,-3.2792 27.341,-5.8174 18.354,-2.1438 63.378,7.7077 17.941,6.75 -18.019,3.6465 -28.436,-7.7482 -43.315,-0.0249 l -1.967,-0.90771 z m -204.53,-1.9294 c 14.588,-13.784 47.413,0.31907 66.447,-3.138 8.3508,7.1292 -54.423,2.3305 -66.447,3.138 z m 190.27,-11.961 c -18.23,-11.268 76.824,-1.1853 21.035,0.56049 -7.0135,-0.0527 -14.037,0.018 -21.035,-0.56049 z m -139.74,-12.68 c 11.749,-4.5276 16.228,4.8936 0,0 z m 13,0 c 21.479,-0.50127 44.024,-1.596 65.25,0.79427 -21.664,0.0836 -43.808,2.3113 -65.25,-0.79427 z m 56,-14.579 c 19.558,-5.0104 56.705,1.0512 15.919,1.1514 -5.3061,-0.17979 -10.735,0.35142 -15.919,-1.1514 z m -36.75,58.829 c 14.891,-4.73 73.101,3.3165 62.75,-5.75 -31.027,2.4761 -49.792,-4.8184 -78.325,-0.95383 -26.501,4.8786 15.595,6.313 15.575,6.7038 z m -484.25,-1.13 c -10.192,-20.656 -49.087,-5.3824 -8.6714,-2.3749 3.0529,0.12693 5.4621,3.9483 8.6714,2.3749 z m 243,-1.62 c 26.811,0.67158 47.879,-1.3644 73.5,1 20.001,2.6787 99.627,-3.9219 46.192,-5.3975 -36.561,1.3146 -71.105,-2.3827 -105.01,-0.30089 -10.311,-3.6585 -40.047,4.9761 -14.686,4.6984 z m -197.91,-3.61 c -9.7468,-11.292 -44.117,4.474 -6.4573,1.912 l 3.101,-0.14175 3.3563,-1.7703 z m 174.09,2.0538 c -19.379,-6.3075 -52.435,-4.4784 -75.66,-3.7507 -28.124,1.0008 -71.33,0.62913 -74.598,-12.847 -21.814,-9.9644 -43.273,3.7484 -73.421,-3.8451 -14.033,0.53619 -53.506,4.5559 -20.658,8.3337 28.17,2.844 58.045,-0.92008 86.668,3.2043 22.23,4.4667 -23.671,8.5883 9.1089,8.8667 49.517,0.35736 99.046,0.7015 148.56,0.0383 z m -154.18,-10.44 c 3.7205,-3.7552 5.4656,3.6609 0,0 z m 876.36,8.5 c -2.3735,-5.247 -0.86537,5.2821 0,0 z m -24.362,-3.051 c -4.3733,0.98449 -2.2481,5.2018 0,0 z m -949,0.99 c -20.568,-5.4461 -40.802,3.2713 -7.1792,1.3126 l 4.4227,-0.176 2.7565,-1.1366 z m 664,-0.19 c -3.4341,-4.8852 -8.0792,6.1487 0,0 z m -92.999,-0.25 c -2.5549,-3.5874 -2.5549,3.5874 0,0 z m 144.5,0 c -2.4663,-3.5623 -1.2094,3.6562 0,0 z m 220.5,0 c -2.5549,-3.5874 -2.5549,3.5874 0,0 z m 8.75,-3.7703 c 4.5747,-16.155 -21.255,0.77525 -2.9785,0.24149 l 2.9785,-0.24149 z m -2.1138,-2.7239 c 3.9955,-3.6346 0.4395,5.0577 0,0 z m 22.364,5.9943 c -7.0851,-9.1877 -6.3978,4.11 0,0 z m 4,0 c -2.4793,-5.269 -2.4793,5.269 0,0 z m -923,-2.6 c -4.183,-3.5398 -3.5881,4.9472 0,0 z m 236,0.10699 c -9.659,-7.0258 49.615,-4.5315 4.0586,-8.4176 -7.7137,6.8752 -48.14,-6.5303 -12.836,7.4176 0.92985,0.51973 12.621,6.0631 8.7775,1 z m 621.79,-0.73379 c 5.6176,-11.553 -26.478,5.0393 0,0 z m -716.79,0.73379 c -2.5549,-3.5874 -2.5549,3.5874 0,0 z m 58.589,-1.5 c -6.1926,-14.451 -47.518,-6.3906 -68.058,-9.0529 -9.2247,-8.7044 34.482,-3.8127 45.465,-3.4338 27.195,3.6758 44.305,-1.2578 70.925,-1.2634 17.747,-1.6069 90.011,7.4416 29.872,7.28 -39.242,7.9532 34.247,3.3812 46.483,6.865 19.685,7.659 55.806,-9.2566 14.009,-6.8494 -22.847,2.249 -45.615,-9.2796 -7.6688,-6.3369 -3.3159,-12.299 -62.342,-3.3012 -85.617,-6.7087 -17.089,-3.5334 -42.464,6.8864 -54.893,-4 -30.697,1.7406 53.235,-2.7184 71.95,-0.95189 15.472,1.6943 87.726,-1.1845 35.8,-5.0465 -28.484,-1.48 -100.78,3.0102 -104.92,-2.9442 34.306,8.0491 25.263,-12.216 1.8779,-10.304 -17.065,0.72665 -83.64,-0.39623 -30.641,-2.26 22.046,7.0416 40.677,-10.75 7.4921,-7.2437 -21.827,0.69611 -59.219,-5.2642 -26.183,18.686 13.862,2.6186 14.618,8.959 27.271,13.422 -27.154,4.1538 -61.774,-2.4378 -87.281,-0.35755 -13.895,-0.19562 -83.553,0.51382 -34.077,5.7984 20.282,2.4008 67.994,-2.0346 65.831,6.2016 -17.418,-0.0457 -56.88,2.8305 -15.223,8 27.284,-4.1596 56.512,2.421 84.945,-1.9744 5.2856,-0.61227 9.4543,6.2488 12.644,2.4744 z m -27.951,-31 c 11.697,-6.41 14.874,6.1903 0,0 z m 708.36,32.5 c 14.635,-4.9214 -7.7377,-3.9743 0,0 z m 46,0 c -2.5549,-3.5874 -2.5549,3.5874 0,0 z m -791.75,-1.6623 c -5.5068,-1.6231 -0.99942,1.7502 0,0 z m 736.25,-0.85142 c -7.7441,-5.8756 -3.9432,5.4448 0,0 z m 41.5,0.5137 c 6.5426,-11.953 -8.3889,1.0137 0,0 z m -4,-3.5314 c -6.0428,-10.355 -4.2991,7.5371 0,0 z m -969.63,-0.96 c 2.2868,-15.376 -38.139,6.4224 0,0 z m 786.32,-2.58 c 17.032,-8.3692 62.965,8.11 68.979,-9.098 -40.18,-2.0767 -80.512,-0.5953 -120.76,-0.97602 -17.798,-0.34045 35.088,10.724 46.256,11.377 0.42933,-0.13809 7.1096,2.3558 5.527,-1.3032 z m 207.31,-0.43341 c -2.4793,-5.269 -2.4793,5.269 0,0 z m -368.25,-5.25 c -28.574,-5.5367 -90.468,-10.5 -104.45,1.0326 34.77,0.0611 69.816,1.4405 104.45,-1.0326 z m 370.96,0.12732 c -6.1033,-7.6955 -5.6516,6.4505 0,0 z m -265.21,-0.37732 c -2.4663,-3.5623 -1.2094,3.6562 0,0 z m 239.5,-1.5 c -0.88931,-18.999 -7.5664,4.1359 0,0 z m -883.27,-1.22 c -29.576,-14.238 -67.106,1.0088 -100.09,-6.5788 -6.5935,16.699 56.232,3.871 74.49,7.7329 8.4573,-0.55069 17.272,0.68254 25.602,-1.1542 z m 897.63,-0.79 c -5.233,-7.0058 -5.0123,2.7183 0,0 z m -280.07,-4.501 c 16.9,-2.9084 37.884,1.0503 57.781,-2.0533 16.249,4.7523 65.42,-1.6105 23.484,-5.8886 -25.283,2.9652 -74.178,-6.8609 -86.991,4.4061 2.8067,-0.85129 5.122,11.038 5.726,3.5359 z m 33.711,2.001 c -2.5549,-3.5874 -2.5549,3.5874 0,0 z m 219.71,-1 c 11.706,-15.27 -10.598,8.2712 0,0 z m 19.315,-2.0557 c -1.6453,-9.7043 -8.0694,10.398 0,0 z m -277.03,0.55569 c -3.8324,-5.3812 -3.8324,5.3812 0,0 z m 117,0.46482 c -4.0087,-15.168 -10.925,6.3924 0,0 z m -735.49,-0.96 c 13.972,-3.2139 53.467,2.5962 21.408,-16.2 -17.971,-6.9993 -90.425,-2.5027 -33.296,-5.8894 32.554,-7.3157 35.967,9.1553 61.661,16.089 31.692,17.702 -6.0983,-10.353 24.786,-2 15.628,1.8276 65.195,-4.7469 24.12,-11.904 -17.727,1.0145 -84.173,-1.0518 -34.36,-2.3762 21.765,4.8762 56.951,-6.8563 13.642,-6.4112 -48.269,-2.0358 -96.311,0.32656 -145.72,0.14587 -2.7232,7.5926 26.275,10.857 37.436,21.808 7.2377,9.5594 24.347,1.2891 30.321,6.737 z m 202.5,-0.6 c -5.513,-1.7371 -3.7666,3.2354 0,0 z m 203.5,0.60699 c -2.4663,-3.5623 -1.2094,3.6562 0,0 z m 505.15,-2.5499 c -5.7539,-1.7619 3.3116,8.1188 0,0 z m -507.92,0.60546 c -1.7494,-10.292 -104.76,-3.8591 -44.5,-8.1252 35.569,-11.717 -87.526,-13.845 -27.763,-13.102 9.9862,-12.418 -46.497,-6.071 -62.45,-6.9302 10.396,14.72 57.003,3.6552 15.141,10.941 13.493,15.846 76.632,6.872 22.838,13.232 28.304,9.53 65.846,2.7065 96.734,3.9841 z m -484.41,-1.46 c 18.596,4.5041 74.531,1.7258 27.221,-11.528 -17.104,-13.402 -59.216,-23.571 -44.236,11.614 l 9.1565,1.038 7.8581,-1.1244 v 4e-5 z m 156.68,0.39 c 12.355,0.39283 79.37,1.1291 31.673,-3.9027 -3.3931,0.54923 -52.791,-2.6977 -31.673,3.9027 z m 848,0 c -2.5549,-3.5874 -2.5549,3.5874 0,0 z m -1038.5,-7.07 c 0.28232,-10.396 -6.5013,9.369 0,0 z m 366.48,1.1458 c 34.247,5.8117 32.83,-15.686 6.7368,-11.075 -19.345,-1.4861 -24.299,-2.3338 3.2632,-3.8067 -23.195,-11.596 -54.313,-6.6541 -84.294,-5.1886 -2.4053,10.289 95.814,5.4154 34.579,8.5621 -30.853,3.0453 11.514,16.595 26.655,10.709 4.4849,-1.0431 8.7556,3.617 13.06,0.79886 z m 661,-1.5704 c -2.3793,-9.2971 -4.7885,9.6555 0,0 z m -1.2292,-14.312 c -3.3621,-4.4497 -3.6337,5.246 0,0 z m -381.77,-0.24652 c -2.8802,-1.9056 -2.3337,3.4348 0,0 z m -505.17,-7.963 c 17.58,-0.84 74.18,2.483 43.79,-10.426 3.43,-13.857 -49.472,5.079 -60.485,-9.447 -17.017,11.343 -51.269,3.086 -74.639,3.888 -20.757,-6.027 -44.285,25.638 -7.7902,17.358 33.02,-0.4 66.16,0.59 99.124,-1.373 z m -106.08,-6.226 c 15.515,-9.744 106.2,-1.452 46.367,-0.861 -15.81,0.802 -31.13,1.872 -46.367,0.861 z m 94.247,0.241 c -64.757,-6.807 92.854,-4.385 27.944,-1.258 -9.01,-0.724 -20.092,1.616 -27.944,1.258 z m 98.85,5.75 c 46.202,-3.4575 96.217,-0.41562 140.32,-2.7665 33.671,1.6148 68.066,-1.2106 102.26,1.026 14.752,-0.50846 77.826,-2.2204 29.744,-7.9498 -22.01,3.1075 -17.276,-8.3737 7.6597,-5.1147 -22.351,-11.24 -60.093,1.3354 -86.644,-3.9296 -18.868,1.8965 -42.596,1.48 -65.658,1.3038 -7.1167,-3.4975 -29.933,3.993 -45.903,0.77201 -37.969,1.0052 -76.337,-1.1442 -114.02,3.1589 29.269,6.4905 61.06,-0.6736 89.395,1.75 15.681,-1.7596 89.138,0.5251 41.5,2 -36.249,7.1552 -89.851,-4.2991 -116.09,6.979 5.6762,-0.04189 12.115,5.7655 17.437,2.7709 z m 128.15,-8.75 c -14.513,-8.2539 46.051,-2.5855 58.882,-4.4074 16.949,-1.2548 96.541,0.54055 42.116,3.0999 -32.65,0.51324 -61.65,2.2513 -92.415,1.0578 -1.3223,-1.7597 -6.0647,3.7682 -8.5833,0.24969 z m 202.42,5.75 c 30.56,-0.05308 63.837,0.06418 96.111,-0.85502 71.45,0.14651 144.1,-2.1382 213.97,-1.895 27.1,-0.3713 61.913,-1.8137 92.312,-1.7218 22.852,5.2949 47.02,-10.195 7.688,-8.4929 -21.659,-0.74616 -52.378,1.6827 -67.5,1.1089 -31.716,1.1777 -66.08,-0.35786 -99.184,1.4945 -16.901,1.5517 -102.7,-0.12086 -43.342,-2.9431 35.036,-0.20633 69.601,-1.2055 102.7,-1.8658 43.276,-3.4447 94.267,3.6581 132.89,-5.3883 -21.852,-7.3626 -59.141,0.75922 -87.138,0.78508 -30.398,-2.5244 -65.437,1.8601 -98.201,0.54424 -39.561,0.48959 -84.09,-0.33652 -120.73,1.4792 -23.128,-0.42594 -46.495,0.35411 -71.966,1.1927 -35.098,-0.66 -68.313,-2.1895 -103.37,1.9769 31.971,9.9498 72.48,-1.4642 108.94,1.863 19.591,0.84377 80.664,-2.249 73.11,2.6752 -36.242,-1.0797 -74.755,3.8134 -109.21,1.2921 -12.21,1.887 -69.464,-4.9497 -52.43,7.7361 7.8078,3.4775 17.227,2.8056 25.346,1.0139 z m 143.25,-11.148 c 13.723,-4.453 49.32,2.2735 10.328,0.39609 l -5.9878,0.98723 -4.34,-1.3833 z m -162.92,-1.264 c 5.5068,-1.6231 0.99942,1.7502 0,0 z m -520.53,-2.7225 c -1.7364,-5.5059 -9.0356,8.2266 0,0 z m 419.78,-2.616 c -2.4663,-3.5623 -1.2094,3.6562 0,0 z m 226.77,-2.8125 c -5.9057,-5.4737 -2.5209,5.4744 0,0 z m -766.77,-0.1875 c 28.377,-1.2474 53.644,-0.1186 79.989,1 26.818,-11.073 -27.386,-11.94 -36.489,-9 -17.559,-4.6771 -93.688,-1.8953 -43.5,8 z m 111.36,-3.5 c -0.86541,-5.2821 -2.3736,5.247 0,0 z m 726.64,0.5 c -2.5549,-3.5875 -2.5549,3.5875 0,0 z m -810,-9 c -3.9032,-3.6531 -3.9032,3.6531 0,0 z m 72.29,-3 c -7.8597,-10.526 -0.81978,10.195 0,0 z m -80.29,0 c 22.325,0.77337 45.906,1.1707 68.794,1.0307 -6.3744,-18.297 -57.512,-5.5312 -79.794,-10.1 -19.174,10.34 2.5662,9.9557 11,9.0696 z m 101,-3.118 c -3.4706,-1.7239 -1.6501,4.6687 0,0 z m 28,-4 c -3.4706,-1.7239 -1.6501,4.6687 0,0 z m -53.608,-8.132 c 13.487,-4.5072 63.795,-52.273 32.247,-30.75 -25.36,25.011 -58.609,27.263 -93.036,23.66 -53.966,9.274 43.008,11.955 60.789,7.0904 z m 22.008,0.41667 c -0.05412,-14.205 -8.9029,6.0342 0,0 z m 7.6,-0.22569 c -3.1061,-3.6266 -1.8976,5.0354 0,0 z m -41.75,-12.673 c 15.004,-17.176 -44.655,-7.4324 -59.034,-8.4216 3.9324,14.914 44.863,6.5784 59.034,8.4216 z m -23.25,-14.268 c 23.321,8.3827 42.086,-11.005 5.7176,-10.032 -23.601,-6.938 -61.579,11.313 -15.159,9.2976 3.2939,-0.4108 6.2994,3.5835 9.4413,0.73442 z m 52.643,-0.5 c 2.6379,-12.685 -14.575,3.4909 0,0 z m 19.149,-12.137 c -10.259,-3.6182 1.6695,5.6385 0,0 z m -85.792,-2.3633 c 22.602,5.0081 56.704,2.7136 30,-24 -18.503,-6.6913 -68.799,7.6488 -21.693,10.049 39.312,-0.22782 -1.2342,9.4661 -19.388,4.1911 -16.443,4.0285 5.982,12.311 11.081,9.7599 z m 29,-11.5 c 2.3777,-5.3997 3.5053,5.2925 0,0 z m -35.726,-4.1037 c 3.9597,-2.1014 0.93456,2.2534 0,0 z m 64.702,3.5025 c -6.073,-17.918 -14.704,-75.988 -21.873,-67.016 13.307,21.207 7.3082,35.829 13.727,54.371 -1.6823,3.0425 9.1565,31.733 8.1438,12.646 z m 12.027,6.1017 c -2.5549,-3.5875 -2.5549,3.5875 0,0 z m 2.4739,-9.4728 c -9.0851,-29.152 -11.043,-25.399 -2.9294,1.2546 1.1261,11.302 8.0329,9.1706 2.9294,-1.2546 z m -41.109,-15.036 c 4.4393,-21.399 -18.077,-74.762 -30.404,-43.946 43.878,0.84972 -35.712,14.476 11.842,15.881 26.354,5.4026 -50.334,10.608 -3.8746,14.702 47.905,7.3552 -40.101,-1.1011 -10.18,14.617 10.76,-0.30262 22.21,1.8979 32.617,-1.2535 z m 54.62,-14.741 c -5.7672,-12.748 -9.0859,4.8833 0,0 z m -23.985,-4.1334 c -0.99542,-2.4885 -7.9905,0.99156 0,0 z m 9.7619,-1.6166 c -8.1027,-6.8721 -9.2049,6.5907 0,0 z m -7.5168,-2.829 c -3.5919,-15.462 -7.6314,6.0887 0,0 z m -27.245,-3.171 c -3.8443,-3.5852 -2.5631,3.7039 0,0 z m 41.5,-6 c -2.4663,-3.5623 -1.2094,3.6562 0,0 z m -18.5,-6 c -2.4663,-3.5623 -1.2094,3.6562 0,0 z m 1.3616,-3.5 c -2.3777,-5.3997 -3.5053,5.2925 0,0 z m -3.0458,-2.25 c 2.196,-9.2385 -10.646,3.5185 0,0 z m -41.491,-17.442 c -5.5987,-30.068 -21.943,19.918 0,0 z m 13.309,-5.961 c 10.741,-19.561 -18.283,8.7256 0,0 z m 21.281,0.54636 c 4.6301,-10.126 -12.826,-0.34874 0,0 z m -24.461,-15.143 c 34.368,-19.648 -4.4479,-24.108 -10.406,-0.16608 3.9036,1.7138 6.04,5.7128 10.406,0.16608 z"
         style="fill:#000000;stroke:#808080"
         id="path2890"
         inkscape:connector-curvature="0" />
    </g>
    <path
       inkscape:connector-curvature="0"
       id="path4031-7"
       d="m 240.39428,266.48212 0.18021,161.99404"
       style="fill:#ff0000;stroke:#ff0000;stroke-width:4.63558292;stroke-linecap:butt;stroke-linejoin:miter;stroke-miterlimit:4;stroke-opacity:1;stroke-dasharray:none;marker-mid:none;marker-end:url(#Arrow1Mend2)"
       sodipodi:nodetypes="cc" />
    <g
       id="g3598"
       transform="matrix(1.9032745,0,0,1.8387944,-352.07576,-356.5057)">
      <text
         sodipodi:linespacing="125%"
         id="text5407-9"
         y="394.36533"
         x="323.98849"
         style="font-size:28px;font-style:normal;font-variant:normal;font-weight:normal;font-stretch:normal;line-height:125%;letter-spacing:0px;word-spacing:0px;fill:#000000;fill-opacity:1;stroke:none;font-family:Latin Modern Roman;-inkscape-font-specification:Sans"
         xml:space="preserve"><tspan
           y="394.36533"
           x="323.98849"
           id="tspan5409-5"
           sodipodi:role="line"
           style="font-style:italic;-inkscape-font-specification:'Latin Modern Roman, Italic'">F</tspan></text>
      <path
         inkscape:connector-curvature="0"
         id="path5419-4-48"
         d="m 328.98848,369.36533 20,0"
         style="fill:none;stroke:#000000;stroke-width:1px;stroke-linecap:butt;stroke-linejoin:miter;stroke-opacity:1;marker-end:url(#Arrow1Mend)" />
    </g>
    <text
       xml:space="preserve"
       style="font-size:22px;font-style:normal;font-variant:normal;font-weight:normal;font-stretch:normal;line-height:125%;letter-spacing:0px;word-spacing:0px;fill:#000000;fill-opacity:1;stroke:none;font-family:Latin Modern Roman;-inkscape-font-specification:Sans"
       x="339.28571"
       y="365.21933"
       id="text3603"
       sodipodi:linespacing="125%"><tspan
         sodipodi:role="line"
         id="tspan3605"
         x="339.28571"
         y="365.21933"
         style="font-size:32px">(mesure 2 cm car</tspan><tspan
         sodipodi:role="line"
         x="339.28571"
         y="405.21933"
         id="tspan3607"
         style="font-size:32px">1 cm pour 25 N)</tspan></text>
  </g>
</svg>
