<?xml version="1.0" encoding="UTF-8" standalone="no"?>
<!-- Created with Inkscape (http://www.inkscape.org/) -->

<svg
   xmlns:dc="http://purl.org/dc/elements/1.1/"
   xmlns:cc="http://creativecommons.org/ns#"
   xmlns:rdf="http://www.w3.org/1999/02/22-rdf-syntax-ns#"
   xmlns:svg="http://www.w3.org/2000/svg"
   xmlns="http://www.w3.org/2000/svg"
   xmlns:sodipodi="http://sodipodi.sourceforge.net/DTD/sodipodi-0.dtd"
   xmlns:inkscape="http://www.inkscape.org/namespaces/inkscape"
   id="svg1306"
   sodipodi:docname="nuagePluie.svg"
   viewBox="0 0 744.09449 1052.3622"
   sodipodi:version="0.32"
   version="1.1"
   inkscape:output_extension="org.inkscape.output.svg.inkscape"
   inkscape:version="0.48.5 r10040"
   width="100%"
   height="100%">
  <defs
     id="defs19" />
  <sodipodi:namedview
     id="base"
     bordercolor="#666666"
     inkscape:pageshadow="2"
     inkscape:window-y="24"
     pagecolor="#ffffff"
     inkscape:window-height="852"
     inkscape:grid-bbox="true"
     inkscape:window-maximized="1"
     inkscape:zoom="4.0000002"
     inkscape:window-x="0"
     showgrid="true"
     borderopacity="1.0"
     inkscape:current-layer="layer1"
     inkscape:cx="11.68458"
     inkscape:cy="23.445419"
     inkscape:showpageshadow="false"
     inkscape:window-width="1440"
     inkscape:pageopacity="0.0"
     inkscape:document-units="px" />
  <g
     id="layer1"
     inkscape:label="Layer 1"
     inkscape:groupmode="layer"
     transform="translate(0,1004.3622)">
    <path
       id="path12229"
       sodipodi:nodetypes="cccc"
       style="fill:none;stroke:#000000;stroke-width:1.07459998;stroke-miterlimit:2"
       d="m 90.670998,-12.763998 c -1.0392,-0.59579 -1.3957,-1.9169 -0.79571,-2.9488 1.3315,-2.0828 3.1051,-1.5462 4.0122,-3.7417 1.2609,1.3336 0.79314,8.2477 -3.2164,6.6905 z"
       inkscape:connector-curvature="0" />
    <path
       id="path8887"
       style="fill:none;stroke:#000000"
       d="m 88.550998,-56.999898 c -2.7715,0 -5.1066,1.5737 -6.4042,3.8125 -0.94405,-0.47504 -1.9646,-0.8125 -3.0927,-0.8125 -3.8627,0 -6.9977,3.136 -6.9977,7 0,3.864 3.135,7 6.9977,7 2.4189,0 4.4286,-1.3193 5.6857,-3.1875 1.1338,0.68962 2.3882,1.1875 3.8113,1.1875 0.91282,0 1.7524,-0.23202 2.5617,-0.53125 0.50977,0.86773 1.1787,1.5797 1.9994,2.1562 -0.007,0.13038 -0.06248,0.24282 -0.06248,0.375 0,3.864 3.135,7 6.997702,7 3.8627,0 6.9977,-3.136 6.9977,-7 0,-2.3697 -1.2586,-4.3583 -3.0615,-5.625 0.007,-0.13038 0.0625,-0.24282 0.0625,-0.375 0,-3.864 -3.135,-7 -6.997702,-7 -0.6225,0 -1.1748,0.22219 -1.7494,0.375 -1.1941,-2.5588 -3.7401,-4.375 -6.7478,-4.375 z"
       inkscape:connector-curvature="0" />
    <path
       id="path12580"
       sodipodi:nodetypes="ccsscsssscsscc"
       style="fill:#ffffff;stroke:#000000;stroke-miterlimit:2"
       d="m 91.547998,-42.499998 c -2.2701,0 -4.1086,1.5503 -4.7172,3.625 -0.693,-0.36383 -1.444,-0.625 -2.2805,-0.625 -2.7591,0 -4.9984,2.24 -4.9984,5 0,0.57893 0.16247,1.1077 0.34364,1.625 -1.373,0.77074 -2.343,2.189 -2.343,3.875 0,2.484 2.0153,4.5 4.4985,4.5 h 18.994002 c 2.4832,0 4.4985,-2.016 4.4985,-4.5 0,-1.686 -0.96996,-3.1043 -2.343,-3.875 0.18118,-0.51729 0.34364,-1.0461 0.34364,-1.625 0,-2.76 -2.2393,-5 -4.9984,-5 -0.83647,0 -1.5875,0.26117 -2.2805,0.625 -0.608642,-2.0747 -2.447102,-3.625 -4.717202,-3.625 z"
       inkscape:connector-curvature="0" />
    <path
       id="path12329"
       sodipodi:nodetypes="ccsscsssscsscc"
       style="fill:#ffffff;stroke:#000000;stroke-miterlimit:2"
       d="m 76.538998,-46.515998 c -2.2701,0 -4.1086,1.5503 -4.7172,3.625 -0.693,-0.36383 -1.444,-0.625 -2.2805,-0.625 -2.7591,0 -4.9984,2.24 -4.9984,5 0,0.57893 0.16247,1.1077 0.34364,1.625 -1.373,0.77074 -2.343,2.189 -2.343,3.875 0,2.484 2.0153,4.5 4.4985,4.5 h 18.994 c 2.4832,0 4.4985,-2.016 4.4985,-4.5 0,-1.686 -0.96996,-3.1043 -2.343,-3.875 0.18118,-0.51729 0.34364,-1.0461 0.34364,-1.625 0,-2.76 -2.2393,-5 -4.9984,-5 -0.83647,0 -1.5875,0.26117 -2.2805,0.625 -0.60864,-2.0747 -2.4471,-3.625 -4.7172,-3.625 z"
       inkscape:connector-curvature="0" />
    <path
       id="path12193"
       sodipodi:nodetypes="cccc"
       style="fill:none;stroke:#000000;stroke-width:1.07459998;stroke-miterlimit:2"
       d="m 66.339898,-18.336998 c -1.0392,-0.59579 -1.3957,-1.9169 -0.79571,-2.9488 1.3315,-2.0828 3.1051,-1.5462 4.0122,-3.7417 1.2609,1.3336 0.79314,8.2477 -3.2164,6.6905 z"
       inkscape:connector-curvature="0" />
    <path
       id="path12241"
       sodipodi:nodetypes="cccc"
       style="fill:none;stroke:#000000;stroke-width:1.07459998;stroke-miterlimit:2"
       d="m 98.962,-14.261998 c -1.039202,-0.59579 -1.395702,-1.9169 -0.79571,-2.9488 1.3315,-2.0828 3.1051,-1.5462 4.0122,-3.7417 1.2609,1.3336 0.79314,8.2477 -3.2164,6.6905 z"
       inkscape:connector-curvature="0" />
    <path
       id="path6059"
       sodipodi:nodetypes="cccc"
       style="fill:none;stroke:#000000;stroke-width:1.07459998;stroke-miterlimit:2"
       d="m 70.350198,-9.580998 c -1.0392,-0.59579 -1.3957,-1.9169 -0.79571,-2.9488 1.3315,-2.0828 3.1051,-1.5462 4.0122,-3.7417 1.2609,1.3336 0.79314,8.2477 -3.2164,6.6905 z"
       inkscape:connector-curvature="0" />
    <path
       id="path12205"
       sodipodi:nodetypes="cccc"
       style="fill:none;stroke:#000000;stroke-width:1.07459998;stroke-miterlimit:2"
       d="m 77.519998,-15.465998 c -1.0392,-0.59579 -1.3957,-1.9169 -0.79571,-2.9488 1.3315,-2.0828 3.1051,-1.5462 4.0122,-3.7417 1.2609,1.3336 0.79314,8.2477 -3.2164,6.6905 z"
       inkscape:connector-curvature="0" />
    <path
       id="path12241-1"
       sodipodi:nodetypes="cccc"
       style="fill:none;stroke:#000000;stroke-width:1.07459998;stroke-miterlimit:2"
       d="m 83.163998,-8.452998 c -1.0392,-0.59579 -1.3957,-1.9169 -0.79571,-2.9488 1.3315,-2.0828 3.1051,-1.5462 4.0122,-3.7417 1.2609,1.3336 0.79314,8.2477 -3.2164,6.6905 z"
       inkscape:connector-curvature="0" />
    <path
       id="path12241-1-3"
       sodipodi:nodetypes="cccc"
       style="fill:none;stroke:#000000;stroke-width:1.07459998;stroke-miterlimit:2"
       d="m 98.87512,-3.518268 c -1.039203,-0.59579 -1.395703,-1.9169 -0.79571,-2.9488 1.3315,-2.0828 3.1051,-1.5462 4.0122,-3.7417 1.2609,1.3336 0.79314,8.2477 -3.2164,6.6905 z"
       inkscape:connector-curvature="0" />
    <path
       id="path12241-1-6"
       sodipodi:nodetypes="cccc"
       style="fill:none;stroke:#000000;stroke-width:1.07459998;stroke-miterlimit:2"
       d="m 86.125117,1.981732 c -1.0392,-0.59579 -1.3957,-1.91690007 -0.79571,-2.94880007 1.3315,-2.08280003 3.1051,-1.54620003 4.0122,-3.74170003 1.2609,1.3336 0.79314,8.2477 -3.2164,6.6905001 z"
       inkscape:connector-curvature="0" />
    <path
       id="path12241-1-7"
       sodipodi:nodetypes="cccc"
       style="fill:none;stroke:#000000;stroke-width:1.07459998;stroke-miterlimit:2"
       d="m 76.875117,-0.01826807 c -1.0392,-0.59579 -1.3957,-1.91690003 -0.79571,-2.94880003 1.3315,-2.0828 3.1051,-1.5462 4.0122,-3.7416999 1.2609,1.3335999 0.79314,8.2477 -3.2164,6.69049993 z"
       inkscape:connector-curvature="0" />
  </g>
  <metadata
     id="metadata17">
    <rdf:RDF>
      <cc:Work>
        <dc:format>image/svg+xml</dc:format>
        <dc:type
           rdf:resource="http://purl.org/dc/dcmitype/StillImage" />
        <cc:license
           rdf:resource="http://creativecommons.org/licenses/publicdomain/" />
        <dc:publisher>
          <cc:Agent
             rdf:about="http://openclipart.org/">
            <dc:title>Openclipart</dc:title>
          </cc:Agent>
        </dc:publisher>
        <dc:title>1277949122</dc:title>
        <dc:date>2010-07-01T01:52:02</dc:date>
        <dc:description />
        <dc:source>https://openclipart.org/detail/69457/-by-horse50</dc:source>
        <dc:creator>
          <cc:Agent>
            <dc:title>horse50</dc:title>
          </cc:Agent>
        </dc:creator>
        <dc:subject>
          <rdf:Bag>
            <rdf:li>cloud</rdf:li>
            <rdf:li>drop</rdf:li>
            <rdf:li>icon</rdf:li>
            <rdf:li>outline</rdf:li>
            <rdf:li>rain</rdf:li>
            <rdf:li>weather</rdf:li>
          </rdf:Bag>
        </dc:subject>
      </cc:Work>
      <cc:License
         rdf:about="http://creativecommons.org/licenses/publicdomain/">
        <cc:permits
           rdf:resource="http://creativecommons.org/ns#Reproduction" />
        <cc:permits
           rdf:resource="http://creativecommons.org/ns#Distribution" />
        <cc:permits
           rdf:resource="http://creativecommons.org/ns#DerivativeWorks" />
      </cc:License>
    </rdf:RDF>
  </metadata>
</svg>
