<?xml version="1.0" encoding="UTF-8" standalone="no"?>
<!-- Created with Inkscape (http://www.inkscape.org/) -->

<svg
   xmlns:dc="http://purl.org/dc/elements/1.1/"
   xmlns:cc="http://creativecommons.org/ns#"
   xmlns:rdf="http://www.w3.org/1999/02/22-rdf-syntax-ns#"
   xmlns:svg="http://www.w3.org/2000/svg"
   xmlns="http://www.w3.org/2000/svg"
   xmlns:sodipodi="http://sodipodi.sourceforge.net/DTD/sodipodi-0.dtd"
   xmlns:inkscape="http://www.inkscape.org/namespaces/inkscape"
   width="210mm"
   height="297mm"
   id="svg2"
   version="1.1"
   inkscape:version="0.48.5 r10040"
   sodipodi:docname="objetMain.svg"
   inkscape:export-filename="/home/sverdan/Travail/01 Cours/08_Physique_3M/01_exercices/images/objetMain.png"
   inkscape:export-xdpi="150"
   inkscape:export-ydpi="150">
  <defs
     id="defs4" />
  <sodipodi:namedview
     id="base"
     pagecolor="#ffffff"
     bordercolor="#666666"
     borderopacity="1.0"
     inkscape:pageopacity="0.0"
     inkscape:pageshadow="2"
     inkscape:zoom="3.959798"
     inkscape:cx="178.89055"
     inkscape:cy="560.4061"
     inkscape:document-units="px"
     inkscape:current-layer="layer1"
     showgrid="true"
     inkscape:snap-grids="false"
     inkscape:window-width="1440"
     inkscape:window-height="852"
     inkscape:window-x="0"
     inkscape:window-y="24"
     inkscape:window-maximized="1">
    <inkscape:grid
       type="xygrid"
       id="grid3052"
       empspacing="5"
       visible="true"
       enabled="true"
       snapvisiblegridlinesonly="true" />
  </sodipodi:namedview>
  <metadata
     id="metadata7">
    <rdf:RDF>
      <cc:Work
         rdf:about="">
        <dc:format>image/svg+xml</dc:format>
        <dc:type
           rdf:resource="http://purl.org/dc/dcmitype/StillImage" />
        <dc:title />
      </cc:Work>
    </rdf:RDF>
  </metadata>
  <g
     inkscape:label="Calque 1"
     inkscape:groupmode="layer"
     id="layer1">
    <rect
       style="color:#000000;fill:#b3b3b3;fill-opacity:1;fill-rule:nonzero;stroke:none;stroke-width:1.875;marker:none;visibility:visible;display:inline;overflow:visible;enable-background:accumulate"
       id="rect3058"
       width="580"
       height="40"
       x="40"
       y="632.36218"
       rx="0"
       ry="0" />
    <path
       style="fill:none;stroke:#000000;stroke-width:4;stroke-linecap:butt;stroke-linejoin:miter;stroke-opacity:1;stroke-miterlimit:4;stroke-dasharray:none"
       d="m 40,632.36218 580,0"
       id="path3054"
       inkscape:connector-curvature="0" />
    <rect
       style="color:#000000;fill:#ffffff;fill-opacity:1;fill-rule:nonzero;stroke:#000000;stroke-width:4;marker:none;visibility:visible;display:inline;overflow:visible;enable-background:accumulate"
       id="rect3828"
       width="180"
       height="160"
       x="62"
       y="468.36218" />
    <path
       style="fill:none;stroke:#000000;stroke-width:2;stroke-linecap:butt;stroke-linejoin:miter;stroke-miterlimit:4;stroke-opacity:1;stroke-dasharray:none"
       d="m 240,546.36218 300,0"
       id="path3836"
       inkscape:connector-curvature="0"
       sodipodi:nodetypes="cc" />
    <g
       id="g3030"
       transform="translate(47.4667,0.5677926)">
      <path
         id="path5106"
         style="fill:#000000"
         inkscape:connector-curvature="0"
         d="m 587.82027,567.50484 c -1.12821,-3.14073 2.24793,-10.04313 -2.44091,-10.36484 -8.98533,-0.48818 -18.17214,1.02005 -26.96025,-1.53771 -4.77154,-0.84339 -7.31848,-5.46076 -11.54924,-7.39949 -3.61153,-2.48735 -7.46481,-4.55713 -11.26719,-6.73953 -3.42279,-2.91042 -7.82109,-1.48997 -11.68921,-0.56007 -4.38557,1.47621 -9.11894,-0.33464 -13.43453,1.3074 -2.77682,3.59243 -7.27246,0.66695 -10.87041,1.15365 -4.01403,-0.44238 -6.1714,3.31018 -9.49388,4.71301 -1.1957,2.65106 -2.68521,8.11607 0.39275,9.44531 -0.63684,-2.43284 -1.39818,-7.86604 2.51238,-6.87992 2.52721,-2.53571 6.15868,1.21981 9.28223,0.76556 0.62602,0.61161 -0.30792,4.4984 2.09354,2.77195 1.96884,-3.82635 7.0483,0.72252 4.6901,3.55554 -1.03659,1.20603 -3.4249,6.03037 -0.58891,2.8642 2.67142,-2.7482 4.63942,-7.46714 -0.35182,-8.94526 -1.6745,-1.18504 -4.48313,0.48988 -2.07743,-2.45851 0.65211,-2.82772 3.0733,-2.70938 4.77621,-3.73749 -0.49836,-4.47761 6.44475,-0.0922 6.76497,2.57408 1.6605,3.03237 2.2246,7.84165 -0.79525,10.07537 -1.68382,1.95103 -5.56467,3.7833 -5.66435,6.26238 3.92539,0.11452 9.35434,-1.20667 10.67977,3.88934 2.87564,5.14901 -4.50645,5.76189 -7.8635,6.39386 -3.95932,0.73587 -8.11395,-0.0785 -11.9475,1.19394 -1.91625,1.19607 -5.76784,1.35936 -2.52256,3.91266 2.74438,-2.52573 6.52174,3.7218 7.29134,-0.88857 3.32969,-2.89685 7.91672,-2.15885 11.74668,-1.07731 3.93599,-0.81646 9.23769,5.26778 4.7885,7.81048 -4.88181,0.96915 -9.88238,1.58203 -14.83121,2.28611 -2.93609,0.81222 -6.57561,-0.75073 -8.64582,-1.04975 1.11484,2.14402 4.28951,2.23945 2.81542,5.38019 -0.93479,1.63717 1.94721,8.41063 2.16055,4.51069 -1.14177,-1.6817 -0.13042,-6.61229 0.26466,-2.15461 2.35015,-2.50665 5.99369,-5.9973 10.11842,-6.23269 3.58608,-1.17275 7.55176,0.004 7.55812,4.25197 2.94139,2.74629 -3.09408,4.89666 -5.58164,4.91575 -3.23192,0.46442 -4.90302,1.15789 -2.14401,2.08887 1.12609,2.08251 5.38865,-3.04318 7.56023,-0.31175 2.61905,-2.71023 3.99962,-6.26873 7.41816,-8.09252 3.02409,-2.50453 5.30595,-6.29208 6.06091,-9.73607 2.03373,0.99672 3.32311,-0.37112 0.67226,-0.89917 -2.51514,-0.0657 -7.79564,-3.85964 -2.44728,-3.75786 1.79835,0.37749 7.46269,-1.05185 2.98593,-1.45902 -3.87237,1.39117 -7.94408,-0.14845 -9.73818,-3.84268 0.78677,-4.69307 -1.82379,-9.08077 -1.06034,-13.72082 -1.16637,-0.65975 -3.4037,0.21164 -2.17582,-1.79453 -1.6499,1.00797 -5.65798,1.5252 -3.72604,-1.61235 -0.33507,-1.31801 -1.22576,-6.94673 0.88644,-3.3791 -1.07306,2.90407 2.95835,3.35704 1.57991,0.28014 -0.53229,-3.72307 3.29978,-1.75211 2.49817,0.91338 1.41449,1.54428 4.77366,-6.98617 6.56775,-1.66813 1.46964,0.86694 5.40987,-1.52138 3.5373,2.24432 -0.80162,2.05367 -7.19124,3.36022 -6.04394,4.67929 3.69211,-1.2247 7.60052,-4.24349 11.60013,-2.45045 3.11317,2.30455 4.42587,6.78492 8.78812,7.3681 3.0856,1.17698 8.30884,3.81087 5.52438,7.79351 -3.71119,1.31271 0.29053,3.7218 2.38153,2.02738 4.16714,-0.69559 8.20916,0.96915 12.43993,0.38384 2.10583,-1.02853 8.29823,2.8396 7.29939,-0.81434 -1.37845,-0.78678 -7.71081,0.27145 -6.22421,-1.69018 5.20628,-0.16329 10.38923,0.615 15.57854,0.80586 1.03066,-0.55138 0.63621,-2.36881 0.82071,-3.36341 z m -0.89281,22.50895 c -5.39502,-1.46964 -10.86214,-3.11318 -16.52224,-2.94353 -3.99537,-1.57354 -7.72353,0.0573 -11.25447,1.98285 -1.85985,0.27145 -6.17755,3.18315 -1.81319,1.82803 4.13534,-1.57566 8.3555,-3.813 12.92981,-2.91381 5.68343,-0.12937 11.00423,2.13977 16.54982,2.88625 0.59378,0.0318 0.55138,-0.67226 0.11027,-0.83979 z m -8.9811,-13.07827 c -4.31346,-1.26817 -8.98533,-0.46231 -13.3094,-1.80894 -4.06323,-1.56082 -2.63601,4.46192 -0.72528,4.8606 2.08887,-4.21167 7.0746,-0.0699 10.42953,-2.1016 0.91401,0.18662 4.62097,0.88433 3.60515,-0.95006 z m -19.41698,2.07615 c 0.44535,-3.6497 -2.72295,-3.40794 -3.83843,-0.68711 -3.08983,1.49297 -2.1016,3.17891 0.16965,4.77791 1.68383,1.24696 0.44111,8.05224 2.92231,3.62212 0.5026,-2.54058 0.91189,-5.11085 0.74647,-7.71292 z m -5.74493,12.5587 c -2.55542,-0.25237 -3.36552,3.91902 -0.73375,1.74108 0.26721,-0.36688 1.62232,-1.32331 0.73375,-1.74108 z m -2.8099,-18.76382 c -2.65722,0.55774 -8.54847,0.0975 -9.31192,3.26373 2.23096,1.62232 5.21052,-0.0361 2.6763,-1.01792 2.05494,-0.70831 5.25081,-0.70196 6.63562,-2.24581 z m -1.00733,21.5504 c -3.28918,1.36996 -7.25697,2.76537 -11.08057,3.38037 -3.34643,1.22151 -8.46789,-0.017 -10.68612,2.40485 3.68362,0.44534 7.79351,-1.37209 11.71466,-1.5078 3.30402,-0.82495 8.80083,-0.64469 10.05203,-4.27742 z m -23.29995,5.59223 c -3.16618,1.62233 -6.75013,2.11009 -10.02871,1.76442 2.55966,2.49604 7.77018,0.61076 10.32773,-1.26181 l -0.0361,-0.34355 -0.26297,-0.15906 z m -13.73142,0.11452 c -4.94713,-0.89281 1.41238,2.70387 0,0 z m -3.63485,-0.98612 c -2.87056,-2.12916 -2.37559,1.63929 0.3391,0.46019 l -0.3391,-0.46019 z m -4.01997,-32.66065 c -2.67884,-1.49721 -6.71642,-4.06111 -4.01912,-7.47202 -1.57376,-4.39066 -1.81848,3.54239 -4.58576,1.44715 -1.67216,0.84616 -5.57889,-3.98646 -4.65024,-0.64256 2.60463,1.27877 5.41686,2.33276 2.59466,5.17235 -0.13764,3.43339 2.94414,-1.70291 5.06843,-0.0254 1.58394,0.21419 5.44655,7.07884 5.59203,1.52053 z m -1.33561,-4.42163 c -1.60069,-2.38788 -3.90206,-0.43261 -0.81158,0.61076 0.33867,0.23116 1.33454,-0.12299 0.81158,-0.61076 z m -1.13244,19.25369 c -2.06555,-0.3181 0.81307,2.2352 0,0 z m -0.11706,3.13013 c -1.98306,0.63196 -1.53941,-6.73954 -2.87353,-2.5215 -0.0772,2.27338 1.56019,5.29747 2.87353,2.5215 z m -2.67546,-16.17869 c -1.38057,-0.0976 -3.52097,3.48216 -0.82388,1.54809 0.93882,0.0699 1.1089,-0.90341 0.82388,-1.54809 z m -1.16574,-2.43667 c -1.79833,-0.54501 0.29287,1.69018 0,0 z m -1.10932,9.59609 c -1.40793,-0.97127 -3.03746,-5.99517 -2.73632,-1.3636 -0.21674,1.03702 4.7287,3.79814 2.73632,1.3636 z" />
      <path
         sodipodi:nodetypes="cac"
         inkscape:connector-curvature="0"
         id="path3838"
         d="m 520,602.36218 c 0,0 -1.27561,6.9204 0,10 1.80399,4.35521 10,10 10,10"
         style="color:#000000;fill:none;stroke:#000000;stroke-width:2;stroke-linecap:butt;stroke-linejoin:miter;stroke-miterlimit:4;stroke-opacity:1;stroke-dasharray:none;stroke-dashoffset:0;marker:none;visibility:visible;display:inline;overflow:visible;enable-background:accumulate" />
    </g>
    <text
       xml:space="preserve"
       style="font-size:24px;font-style:normal;font-variant:normal;font-weight:normal;font-stretch:normal;line-height:125%;letter-spacing:0px;word-spacing:0px;fill:#000000;fill-opacity:1;stroke:none;font-family:Latin Modern Roman;-inkscape-font-specification:Latin Modern Roman"
       x="260"
       y="522.36218"
       id="text3857"
       sodipodi:linespacing="125%"><tspan
         sodipodi:role="line"
         id="tspan3859"
         x="260"
         y="522.36218"
         style="font-size:48px;font-style:italic">C</tspan></text>
    <path
       sodipodi:type="arc"
       style="color:#000000;fill:#000000;fill-opacity:1;fill-rule:nonzero;stroke:#000000;stroke-width:1;stroke-linecap:butt;stroke-linejoin:miter;stroke-miterlimit:4;stroke-opacity:1;stroke-dasharray:none;stroke-dashoffset:0;marker:none;visibility:visible;display:inline;overflow:visible;enable-background:accumulate"
       id="path2993"
       sodipodi:cx="165"
       sodipodi:cy="337.36218"
       sodipodi:rx="5"
       sodipodi:ry="5"
       d="m 170,337.36218 a 5,5 0 1 1 -10,0 5,5 0 1 1 10,0 z"
       transform="matrix(0.77041988,0,0,0.77041988,115.15739,286.30069)" />
  </g>
</svg>
