<?xml version="1.0" encoding="UTF-8" standalone="no"?>
<!-- Created with Inkscape (http://www.inkscape.org/) -->

<svg
   xmlns:dc="http://purl.org/dc/elements/1.1/"
   xmlns:cc="http://creativecommons.org/ns#"
   xmlns:rdf="http://www.w3.org/1999/02/22-rdf-syntax-ns#"
   xmlns:svg="http://www.w3.org/2000/svg"
   xmlns="http://www.w3.org/2000/svg"
   xmlns:sodipodi="http://sodipodi.sourceforge.net/DTD/sodipodi-0.dtd"
   xmlns:inkscape="http://www.inkscape.org/namespaces/inkscape"
   width="210mm"
   height="297mm"
   id="svg3818"
   version="1.1"
   inkscape:version="0.48.5 r10040"
   sodipodi:docname="Nouveau document 6">
  <defs
     id="defs3820" />
  <sodipodi:namedview
     id="base"
     pagecolor="#ffffff"
     bordercolor="#666666"
     borderopacity="1.0"
     inkscape:pageopacity="0.0"
     inkscape:pageshadow="2"
     inkscape:zoom="2.8"
     inkscape:cx="348.21429"
     inkscape:cy="605.71429"
     inkscape:document-units="px"
     inkscape:current-layer="layer1"
     showgrid="true"
     inkscape:snap-grids="true"
     inkscape:window-width="1440"
     inkscape:window-height="852"
     inkscape:window-x="0"
     inkscape:window-y="24"
     inkscape:window-maximized="1">
    <inkscape:grid
       type="xygrid"
       id="grid3826"
       empspacing="5"
       visible="true"
       enabled="true"
       snapvisiblegridlinesonly="true" />
  </sodipodi:namedview>
  <metadata
     id="metadata3823">
    <rdf:RDF>
      <cc:Work
         rdf:about="">
        <dc:format>image/svg+xml</dc:format>
        <dc:type
           rdf:resource="http://purl.org/dc/dcmitype/StillImage" />
        <dc:title></dc:title>
      </cc:Work>
    </rdf:RDF>
  </metadata>
  <g
     inkscape:label="Calque 1"
     inkscape:groupmode="layer"
     id="layer1">
    <g
       id="g3848"
       transform="matrix(0.08015445,0,0,0.08015445,221.31844,323.46295)">
      <path
         id="path3850"
         d="m 1064.8578,274.6857 c 0.1377,-5.8318 -2.1143,-9.6809 -5.2408,-12.9641 -4.9371,-5.1843 -10.2296,-10.0295 -15.1783,-15.2033 -5.7728,-6.0355 -9.7975,-12.9584 -10.444,-21.581 -0.2296,-3.0618 0.7815,-4.699 3.6653,-5.4532 17.4568,-4.5652 33.6954,-3.5489 47.2244,10.1543 6.8085,6.896 12.4919,14.7393 18.6917,22.147 8.4036,10.0409 17.7485,18.3258 31.4104,20.6033 6.7246,1.121 11.4569,4.9177 12.9893,12.588 1.3473,6.744 5.5708,12.8348 4.7876,20.1902 -0.1678,1.5771 1.4285,2.5613 2.4794,3.5809 16.5771,16.082 36.093,17.7857 57.0591,11.2551 8.5367,-2.659 15.9132,-7.4894 22.2321,-13.9268 2.3043,-2.3475 2.2115,-3.551 -0.8737,-4.9324 -5.3391,-2.3906 -10.9102,-4.0551 -16.4462,-5.8528 -4.9081,-1.5938 -9.8147,-3.1874 -14.33,-5.7675 -7.3567,-4.2035 -11.7423,-9.7581 -10.684,-18.9995 1.0436,-9.1107 1.5665,-18.2509 5.0333,-26.8801 2.8396,-7.0678 7.2493,-12.7799 14.4889,-15.6935 2.3488,-0.9452 2.8397,-2.3095 2.7294,-4.5359 -1.912,-38.5638 15.0583,-68.5141 43.1445,-93.0628 13.1525,-11.4959 29.5,-15.1924 46.2772,-13.4539 17.6436,1.8283 35.2734,4.9746 52.0284,11.4254 28.2842,10.8897 44.4978,31.1499 47.5276,61.5324 0.2632,2.6393 1.3174,4.754 2.8695,6.7656 3.5933,4.6572 8.0703,8.3983 12.5179,12.1741 4.5857,3.8931 9.0303,7.9332 12.1146,13.1898 3.2423,5.5262 2.1379,10.0881 -3.7036,12.7036 -5.1956,2.3264 -6.9636,5.9171 -6.9392,11.3816 0.04,8.9577 2.2216,17.4564 4.4767,25.9939 1.2312,4.661 2.5232,9.3388 3.2604,14.0909 1.8866,12.1591 -4.9899,21.1408 -17.1051,23.2097 -8.7629,1.4964 -17.6591,0.2813 -26.4161,1.665 -1.98,0.3129 -3.3964,0.7296 -3.9089,2.975 -4.0879,17.9029 -13.9363,32.9968 -23.634,48.1544 -8.4469,13.2025 -16.7725,26.4702 -21.1487,41.7247 -3.8937,13.5723 -4.3157,27.6232 -5.2231,41.556 -3.3746,51.8045 -27.3037,92.1152 -68.4417,122.7089 -25.5623,19.0101 -54.496,31.9647 -83.2745,45.1348 -31.8119,14.5582 -65.4667,21.0973 -100.1676,22.8992 -32.3479,1.6796 -64.636,0.0847 -96.8743,-2.5671 -3.5649,-0.2932 -4.6055,0.7939 -5.0355,4.0341 -1.5085,11.3669 0.7668,22.1965 4.1962,32.9128 3.6479,11.3988 8.2966,22.4948 10.3997,34.363 3.329,18.7866 2.2736,37.6113 -0.6487,56.2379 -5.745,36.6206 -6.4731,73.2717 -2.7714,110.099 1.8218,18.1249 1.2244,36.3051 0.083,54.4357 -1.1671,18.5404 0.9319,36.5146 7.1248,54.0745 9.9557,28.229 14.3623,57.775 20.1626,86.9788 5.9653,30.0349 11.6258,60.1327 20.054,89.6139 2.1138,7.394 3.0405,8.0911 10.8461,8.0179 3.6654,-0.034 7.3311,-0.2968 10.9943,-0.2549 6.4711,0.074 7.879,1.2448 8.9844,7.5363 1.6782,9.5527 2.0281,19.2117 2.2445,28.89 0.2272,10.1566 0.5968,20.3149 2.8989,30.2853 0.9148,3.9623 2.5765,7.4373 5.2592,10.5867 8.5842,10.0776 18.4072,18.8092 28.783,26.944 10.6191,8.3258 21.1084,16.8474 32.0909,24.6708 11.4292,8.1416 24.7977,11.9646 38.2903,15.1818 6.1505,1.4668 12.4016,2.5444 18.4948,4.2097 6.6681,1.8224 9.136,5.8353 8.3463,12.7426 -0.8739,7.6443 -4.7562,14.1331 -8.1866,20.7823 -2.7094,5.2515 -2.5289,5.9243 2.797,8.7186 2.5032,1.3134 5.1991,2.3198 7.5397,3.87 4.7603,3.1526 5.4058,7.7595 1.9702,12.3412 -5.7102,7.6151 -13.5759,12.1626 -22.2935,15.3988 -14.2168,5.2775 -29.1421,6.8352 -44.1017,7.8684 -63.7599,4.4036 -127.5766,3.4224 -191.3951,1.7147 -1.7502,-0.047 -4.3027,0.7107 -5.0377,-1.1381 -0.7753,-1.9506 0.363,-4.2343 1.6732,-6.0332 2.5575,-3.5116 6.4657,-4.51 10.3983,-5.3483 5.3662,-1.1439 10.9203,-1.259 16.1914,-2.9564 3.2866,-1.0583 6.0811,-2.6975 7.6006,-5.9856 2.5332,-5.4817 0.9323,-8.8523 -4.9253,-10.3513 -8.1803,-2.0938 -8.2235,-2.0909 -8.7867,-10.9012 -0.9778,-15.2936 -3.3668,-30.4598 -3.8488,-45.8057 -0.4994,-15.902 1.4404,-31.4058 8.5181,-45.7079 9.0208,-18.228 7.8567,-36.3148 1.2058,-54.7277 -3.3403,-9.2477 -7.1643,-18.2864 -11.5037,-27.0974 -9.345,-18.9745 -18.0034,-38.2312 -25.0002,-58.2175 -3.2587,-9.3086 -7.0881,-18.5341 -13.7457,-25.8922 -14.6815,-16.2263 -20.859,-36.0571 -25.3029,-56.7389 -5.2292,-24.3371 -7.0365,-49.0963 -9.0337,-73.832 -2.1174,-26.226 -4.132,-52.462 -10.8436,-78.0593 -2.2507,-8.5842 -5.1506,-16.9637 -9.5013,-24.6279 -19.2961,-33.991 -29.7435,-71.0739 -38.7142,-108.7192 -3.8179,-16.0212 -7.9532,-31.9614 -12.8494,-47.7004 -1.0918,-3.5095 -2.9084,-6.157 -5.6968,-8.4835 -9.0823,-7.5781 -18.1279,-15.2067 -26.9941,-23.0351 -6.6398,-5.8628 -12.2864,-12.6372 -17.3253,-19.9565 -3.0178,-4.3834 -3.8943,-8.8207 -1.667,-13.6262 1.5568,-3.3589 0.7929,-5.9255 -1.5124,-8.6323 -2.8538,-3.3506 -6.03,-6.2235 -9.8856,-8.2991 -2.4871,-1.3389 -5.0459,-2.5626 -7.6397,-3.6823 -22.7996,-9.8426 -29.4606,-20.4186 -27.8132,-45.3937 0.7911,-11.993 0.7117,-23.9772 0.9041,-35.9706 0.0536,-3.3406 -1.1368,-5.5139 -3.5836,-7.666 -17.0571,-15.0026 -36.772,-25.7538 -56.8586,-35.9415 C 644.6143,488.8673 631.8349,482.4153 619.129,475.822 597.0045,464.3412 577.9755,448.6593 560.48,431.1809 502.3724,373.1301 435.5477,326.9206 364.6869,286.1226 c -19.338,-11.1338 -38.895,-21.8679 -58.6868,-32.1733 -5.3629,-2.7924 -9.1117,-1.4664 -11.4973,4.1876 -0.9661,2.2897 -1.4959,4.7594 -2.3537,7.0996 -2.7821,7.5899 -10.2179,9.4017 -16.3301,4.0146 -0.3743,-0.3299 -0.8668,-0.6332 -1.0484,-1.0583 -4.4266,-10.3597 -13.1356,-13.5409 -23.4666,-15.5746 -8.7246,-1.7174 -15.6418,-7.9062 -22.5708,-13.4149 -7.2986,-5.8025 -14.3123,-11.9736 -22.3265,-16.839 -5.6792,-3.4478 -11.6101,-5.6212 -18.4165,-5.2068 -12.5069,0.7616 -24.0277,-2.6537 -34.9544,-8.5613 -5.1202,-2.7683 -10.3434,-5.3699 -15.6407,-7.7816 -8.2687,-3.7646 -16.9486,-4.8045 -25.8589,-2.9099 -2.2706,0.4828 -3.6114,0.2397 -4.8849,-1.9275 -1.5051,-2.5615 -3.5629,-4.8037 -5.4291,-7.1459 -1.998,-2.5076 -4.2477,-5.2324 -4.0542,-8.3915 0.4064,-6.6353 -3.8015,-8.6459 -8.7391,-11.1582 -18.007,-9.1619 -20.0229,-21.4111 -6.2035,-36.0835 9.1084,-9.6706 20.0269,-17.0886 31.3744,-23.7752 20.2232,-11.9166 40.723,-23.3637 60.9496,-35.2748 3.3486,-1.9719 6.4994,-2.9389 10.2733,-2.739 4.1779,0.2213 6.8394,2.6423 8.5015,6.004 1.5611,3.1572 -1.0198,5.238 -2.9489,7.3013 -5.0362,5.3865 -5.4644,8.0368 -2.5863,13.7605 1.5375,3.0575 3.574,3.6468 6.4913,2.0647 2.0475,-1.1104 4.0854,-2.2843 6.2435,-3.1355 4.4934,-1.7724 8.4238,-1.7889 12.0145,2.5231 5.4642,6.5618 12.9233,10.7242 20.864,13.249 23.0963,7.3437 38.9789,22.7524 50.9883,43.1551 6.3324,10.7581 13.2407,21.2091 22.45,29.8781 2.5882,2.4363 5.4412,4.1733 8.8415,5.3821 49.5347,17.61 99.812,33.0745 149.0481,51.5404 11.9952,4.4987 23.7582,9.6363 35.8348,13.8931 13.619,4.8004 24.5801,13.1664 34.1029,23.6718 6.0417,6.6649 12.3693,13.1624 17.6599,20.3994 16.1531,22.0958 38.0736,35.7097 63.2104,45.2815 37.8563,14.4152 77.0099,23.2508 116.9972,29.0648 29.8353,4.338 59.7613,3.7202 89.7706,3.6714 48.1696,-0.0781 95.7846,4.7582 141.5764,21.1198 13.421,4.7954 26.1328,10.9769 36.6849,20.8041 14.1853,13.2106 30.6403,15.1756 48.3814,9.6586 20.7476,-6.452 39.8065,-16.8637 59.271,-26.2695 11.9855,-5.7918 23.3708,-12.7905 35.5797,-18.1516 2.3604,-1.0364 2.8291,-2.0295 1.6595,-4.4648 -11.8248,-24.6208 -28.2048,-44.3847 -55.536,-52.5768 -2.3093,-0.6922 -3.6095,-2.2745 -4.7729,-4.1147 -4.2714,-6.7556 -8.5808,-13.4887 -12.7478,-20.3086 -7.5204,-12.3083 -17.1768,-21.9179 -31.3561,-26.4214 -5.7211,-1.817 -11.0885,-4.6516 -14.8549,-9.6759 -2.2552,-3.0083 -4.6529,-7.0146 -2.9539,-10.0132 1.812,-3.1979 6.3261,-1.4308 9.654,-0.7195 6.6168,1.4144 12.3761,4.8095 18.0945,8.2378 4.397,2.6363 8.7542,5.3399 13.872,8.4675 z m -24.7097,1105.0731 c 1.1635,-0.055 2.3263,-0.1265 3.4904,-0.1635 18.6674,-0.5939 37.006,-4.1639 55.5223,-6.1217 5.8652,-0.6201 5.8882,-0.5747 2.7527,-5.7366 -5.4146,-8.913 -13.5347,-14.5139 -22.9301,-18.4536 -16.4083,-6.88 -33.9906,-8.9949 -51.2307,-12.4982 -1.3975,-0.2839 -2.2072,-0.1859 -2.4237,1.42 -0.953,7.0674 -3.2982,13.9167 -3.0538,21.1809 0.1991,5.9216 -0.015,6.037 -6.1322,5.4226 -3.9788,-0.3999 -7.9517,-0.8292 -11.9469,-0.3824 -1.5477,0.1732 -3.0631,0.8391 -3.6134,2.3213 -0.5586,1.5039 0.921,2.3534 1.8458,3.2422 3.8145,3.6652 8.4772,5.7903 13.4833,7.2494 7.9246,2.3096 16.0733,2.476 24.2363,2.5196 z M 100.6422,159.5468 c 6.129,0.0569 11.8039,-2.8889 16.9424,-7.0891 4.6581,-3.8075 8.5703,-8.3567 12.4923,-12.8858 3.9211,-4.5281 7.768,-9.1313 12.3372,-13.0377 6.7484,-5.7695 14.1538,-9.8438 23.4599,-9.3508 3.3167,0.1757 6.7468,-0.1176 9.6882,-1.8424 2.5272,-1.482 4.5479,-3.2726 0.4873,-5.7101 -1.6456,-0.9878 -2.7868,-2.8115 -4.1683,-4.2444 -3.8371,-3.98 -7.8023,-4.2202 -12.4041,-1.0849 -7.0051,4.7726 -14.0758,9.4523 -21.1974,14.0494 -7.2696,4.6925 -14.7742,9.11 -21.0848,15.0573 -4.5577,4.2953 -9.4562,7.7276 -15.3009,9.9766 -3.8436,1.479 -6.8643,3.9749 -7.9596,8.2943 -1.5501,6.112 -0.1968,7.9621 6.7078,7.8676 z M 1124.3295,1368.571 c 0.9948,0 1.9976,-0.082 2.9829,0.014 4.5332,0.4436 8.5933,2.4449 12.7854,3.993 2.4781,0.915 4.3884,0.28 5.23,-2.1611 0.8699,-2.5233 2.6749,-5.3169 -0.2981,-7.6978 -4.8663,-3.8972 -18.2657,-2.9369 -22.5323,1.5723 -1.0276,1.0858 -2.3063,2.402 -1.7046,3.8818 0.6974,1.7155 2.3444,0.051 3.5367,0.3976 z"
         inkscape:connector-curvature="0" />
    </g>
    <path
       style="fill:#8080ff;stroke:#8080ff;stroke-width:8;stroke-linecap:butt;stroke-linejoin:miter;stroke-miterlimit:4;stroke-opacity:1;stroke-dasharray:none"
       d="m 210.64286,439.64789 180,0"
       id="path4368"
       inkscape:connector-curvature="0" />
  </g>
</svg>
