<?xml version="1.0" encoding="UTF-8" standalone="no"?>
<!-- Created with Inkscape (http://www.inkscape.org/) -->

<svg
   xmlns:dc="http://purl.org/dc/elements/1.1/"
   xmlns:cc="http://creativecommons.org/ns#"
   xmlns:rdf="http://www.w3.org/1999/02/22-rdf-syntax-ns#"
   xmlns:svg="http://www.w3.org/2000/svg"
   xmlns="http://www.w3.org/2000/svg"
   xmlns:sodipodi="http://sodipodi.sourceforge.net/DTD/sodipodi-0.dtd"
   xmlns:inkscape="http://www.inkscape.org/namespaces/inkscape"
   width="210mm"
   height="297mm"
   id="svg2"
   version="1.1"
   inkscape:version="0.48.5 r10040"
   sodipodi:docname="tendeurMain.svg"
   inkscape:export-filename="/home/sverdan/Travail/01 Cours/08_Physique_3M/01_exercices/images/tendeurMain.png"
   inkscape:export-xdpi="150"
   inkscape:export-ydpi="150">
  <defs
     id="defs4" />
  <sodipodi:namedview
     id="base"
     pagecolor="#ffffff"
     bordercolor="#666666"
     borderopacity="1.0"
     inkscape:pageopacity="0.0"
     inkscape:pageshadow="2"
     inkscape:zoom="3.959798"
     inkscape:cx="356.72444"
     inkscape:cy="662.85714"
     inkscape:document-units="px"
     inkscape:current-layer="layer1"
     showgrid="true"
     inkscape:snap-grids="false"
     inkscape:window-width="1280"
     inkscape:window-height="976"
     inkscape:window-x="0"
     inkscape:window-y="24"
     inkscape:window-maximized="1">
    <inkscape:grid
       type="xygrid"
       id="grid3052"
       empspacing="5"
       visible="true"
       enabled="true"
       snapvisiblegridlinesonly="true" />
  </sodipodi:namedview>
  <metadata
     id="metadata7">
    <rdf:RDF>
      <cc:Work
         rdf:about="">
        <dc:format>image/svg+xml</dc:format>
        <dc:type
           rdf:resource="http://purl.org/dc/dcmitype/StillImage" />
        <dc:title />
      </cc:Work>
    </rdf:RDF>
  </metadata>
  <g
     inkscape:label="Calque 1"
     inkscape:groupmode="layer"
     id="layer1">
    <g
       id="g3967"
       transform="translate(-1.0101525,-23.738585)">
      <path
         inkscape:connector-curvature="0"
         id="path3927"
         d="m 278.53553,330.14138 175,135"
         style="fill:none;stroke:#808080;stroke-width:6;stroke-linecap:butt;stroke-linejoin:miter;stroke-miterlimit:4;stroke-opacity:1;stroke-dasharray:none" />
      <path
         sodipodi:nodetypes="ccssscc"
         inkscape:connector-curvature="0"
         id="path3929"
         d="m 462.49865,477.3459 4.05769,2.9215 c 0,0 5.60198,0.77663 6.97919,-1.13618 1.37721,-1.91281 0.10398,-4.97482 -1.13619,-6.97919 -1.75387,-2.83462 -4.87083,-5.0788 -8.11538,-5.843 -2.29423,-0.54038 -6.97918,1.13619 -6.97918,1.13619 l -4.05769,-2.92151"
         style="fill:none;stroke:#000000;stroke-width:2;stroke-linecap:butt;stroke-linejoin:miter;stroke-miterlimit:4;stroke-opacity:1;stroke-dasharray:none" />
      <path
         sodipodi:nodetypes="ccssscc"
         inkscape:connector-curvature="0"
         id="path3929-5"
         d="m 270,317.36218 -4.05769,-2.9215 c 0,0 -5.60198,-0.77663 -6.97919,1.13618 -1.37721,1.91281 -0.10398,4.97482 1.13619,6.97919 1.75387,2.83462 4.87083,5.0788 8.11538,5.843 2.29423,0.54038 6.97918,-1.13619 6.97918,-1.13619 l 4.05769,2.92151"
         style="fill:none;stroke:#000000;stroke-width:2;stroke-linecap:butt;stroke-linejoin:miter;stroke-miterlimit:4;stroke-opacity:1;stroke-dasharray:none" />
    </g>
    <path
       d="m 512.9124,495.96775 c 0.568,-2.21483 4.97188,-4.78631 2.56553,-6.80642 -4.65937,-3.79874 -10.17485,-6.54984 -13.95303,-11.43921 -2.25558,-2.34694 -1.89922,-5.95139 -3.45324,-8.70443 -1.0149,-2.81984 -2.31643,-5.49882 -3.54836,-8.22139 -0.75478,-2.98459 -3.65688,-3.9076 -6.08958,-4.89955 -2.91611,-0.88655 -4.78887,-3.76449 -7.72936,-4.53001 -2.84154,0.93853 -4.16884,-2.47523 -6.29,-3.61136 -1.99751,-1.8236 -4.56519,-0.55181 -6.88093,-1.06291 -1.637,1.02725 -4.48597,3.52733 -3.32498,5.48438 0.56775,-1.62267 2.19183,-4.98738 3.92998,-2.89749 2.31136,-0.44006 2.86216,3.10328 4.71552,4.0717 0.10835,0.59063 -1.85029,2.4179 0.0903,2.38523 2.49371,-1.38737 3.52778,3.17147 1.19618,3.84558 -1.0102,0.27416 -4.10364,2.06024 -1.38981,1.38547 2.46863,-0.50343 5.29611,-2.39484 3.15979,-5.18614 -0.45866,-1.32535 -2.59937,-1.48142 -0.19897,-2.20202 1.41021,-1.3401 2.67068,-0.32393 3.97332,-0.23641 1.408,-2.72232 3.50758,2.47503 2.68181,4.10528 -0.24058,2.36239 -1.73734,5.29766 -4.20111,5.37412 -1.63793,0.4408 -4.41537,-0.0469 -5.39733,1.31307 2.07249,1.60382 5.49284,2.98697 4.299,6.38258 -0.37828,4.03337 -4.58596,1.48464 -6.63169,0.52495 -2.4092,-1.13721 -4.3432,-3.22588 -6.88552,-4.01097 -1.48052,-0.0764 -3.61726,-1.49449 -2.82443,1.21896 2.42465,-0.34928 2.12098,4.65761 4.26199,2.35756 2.87904,-0.32921 5.07464,1.88591 6.73363,3.99803 2.42681,1.08259 3.00574,6.59503 -0.34398,6.28541 -2.99368,-1.36728 -5.91796,-2.98219 -8.8485,-4.52534 -1.88637,-0.6929 -3.26248,-3.00204 -4.26614,-3.98255 -0.20201,1.64711 1.47308,2.94579 -0.4973,4.14023 -1.11677,0.55738 -2.09987,5.50999 -0.52464,3.39274 0.0144,-1.39675 2.40558,-3.78273 0.94939,-1.11215 2.20505,-0.49309 5.47556,-1.03433 7.7865,0.45018 2.37165,0.74431 4.06813,2.96339 2.48098,5.36318 0.5568,2.7032 -3.50086,1.55017 -4.84854,0.58555 -1.91558,-1.00519 -3.07578,-1.26909 -1.93755,0.33814 -0.17291,1.6168 4.0434,0.39556 4.19092,2.78852 2.42619,-0.50254 4.5026,-1.96941 7.02773,-1.6582 2.56745,-0.22763 5.21531,-1.47036 6.91171,-3.11792 0.72276,1.35994 1.92977,1.09359 0.69895,-0.24383 -1.3308,-1.0233 -2.75587,-5.23492 0.0882,-3.08033 0.82778,0.91819 4.41548,2.33261 2.15542,0.34743 -2.60771,-0.7333 -4.22546,-3.19874 -3.80906,-5.98703 2.18123,-2.33999 2.41731,-5.83979 4.56611,-8.15901 -0.38152,-0.82966 -1.91349,-1.21518 -0.50061,-1.86589 -1.26654,-0.0781 -3.62015,-1.35782 -1.40424,-2.37093 0.31294,-0.8752 1.94053,-4.40097 1.74295,-1.55939 -1.66565,1.21813 0.33726,3.05452 0.74651,0.7776 1.10719,-2.3098 2.43429,0.30509 1.00426,1.49502 0.18403,1.42614 5.18836,-2.07078 4.16395,1.63389 0.46737,1.06551 3.48501,1.2627 1.06589,2.65358 -1.20095,0.84465 -5.13352,-0.92345 -5.00914,0.27082 2.44823,0.75657 5.6848,0.58548 7.16881,3.16566 0.81477,2.52126 -0.15541,5.56444 1.97703,7.60404 1.22212,1.87412 3.0507,5.40863 0.0589,6.56438 -2.49148,-0.71439 -1.237,2.21429 0.52428,2.07796 2.50611,1.24144 4.06101,3.76583 6.56012,5.09446 1.51994,0.24527 3.40866,4.85633 4.23854,2.40261 -0.44825,-0.98452 -4.25698,-2.87031 -2.72135,-3.39443 2.86678,1.94929 5.36845,4.42081 8.09349,6.5633 0.76187,0.093 1.22981,-1.08735 1.70164,-1.5763 z m -8.90921,12.35266 c -2.35709,-2.94483 -4.68791,-6.01607 -7.80164,-8.13972 -1.56391,-2.45464 -4.18364,-2.99615 -6.80745,-3.294 -1.1039,-0.57608 -4.52093,-0.62591 -1.66159,0.32066 2.8185,0.73231 5.93047,1.12445 8.05886,3.42554 3.11122,2.15553 5.12895,5.52245 7.83795,8.11821 0.30807,0.25077 0.54885,-0.16318 0.37387,-0.43069 z m 0.057,-10.9022 c -1.84966,-2.40704 -4.66906,-3.78416 -6.49507,-6.23964 -1.60524,-2.47407 -3.09123,1.48444 -2.21082,2.45865 2.70268,-1.55774 3.83866,2.73459 6.40736,2.90352 0.42267,0.46372 2.1591,2.31101 2.29853,0.87747 z m -11.24113,-6.44197 c 1.60656,-1.88505 -0.19135,-2.99094 -1.81124,-1.89285 -2.22412,-0.36902 -2.32284,0.96992 -1.69759,2.76289 0.44052,1.36396 -2.7773,4.71718 0.21859,3.18998 1.22212,-1.23667 2.40509,-2.5267 3.29024,-4.06002 z m -7.79831,4.83474 c -1.28262,-1.14443 -3.28108,0.89201 -1.04734,0.69486 0.28138,-0.10227 1.36976,-0.11068 1.04734,-0.69486 z m 5.51153,-11.691 c -1.6408,-0.72716 -4.64325,-3.29692 -6.24021,-1.80945 0.59481,1.79033 2.82145,2.02274 1.82339,0.47496 1.37262,0.40604 3.09248,1.66275 4.41682,1.33449 z m -8.61201,11.76681 c -2.28549,-0.5166 -4.94621,-1.28493 -7.23702,-2.43714 -2.26075,-0.62283 -4.55695,-3.32995 -6.65917,-2.83299 1.81834,1.69571 4.71366,2.2816 6.87757,3.74253 2.08941,0.82999 4.98413,3.08709 7.01862,1.5276 z m -14.65019,-5.98026 c -2.3137,-0.32594 -4.42772,-1.45599 -6.0651,-2.93663 0.44479,2.41229 3.95863,3.39145 6.03804,3.33753 l 0.10918,-0.20804 -0.0822,-0.19287 z m -7.44271,-5.31961 c -2.3317,-2.44368 -0.25129,2.07972 0,0 z m -1.58957,-1.98178 c -0.74972,-2.32715 -1.89401,-0.006 0.0104,0.39267 l -0.0104,-0.39267 z m 10.06285,-20.00804 c -0.88301,-1.89534 -2.09885,-4.92544 0.63188,-5.79271 0.79591,-3.09492 -2.30636,1.28607 -3.01311,-0.98145 -1.21796,-0.17814 -1.51379,-4.43726 -2.26541,-2.18603 0.92481,1.74297 2.04567,3.44049 -0.53844,3.93637 -1.35975,1.88363 2.22421,0.19341 2.74087,1.97306 0.77338,0.74195 0.28458,6.13053 2.44419,3.05079 z m 0.93585,-3.01902 c 0.0315,-1.97523 -1.94083,-1.77417 -0.66605,0.0265 0.096,0.26325 0.76523,0.45388 0.66605,-0.0265 z m -7.81948,10.42162 c -0.99401,-0.98944 -0.39877,1.58023 0,0 z m -1.23511,1.72057 c -1.30529,-0.42094 1.69393,-4.40703 -0.6044,-2.54974 -0.89283,1.25269 -1.14277,3.60135 0.6044,2.54974 z m 4.61604,-10.17939 c -0.70745,-0.59642 -3.20128,0.58451 -1.02365,0.5506 0.47976,0.40756 0.93585,-0.075 1.02365,-0.5506 z m 0.28415,-1.83222 c -0.76505,-1.01272 -0.47503,1.06868 0,0 z m -4.1909,4.9805 c -0.39505,-1.1002 0.60791,-4.57435 -0.96401,-1.84248 -0.5051,0.50025 1.12613,3.99762 0.96401,1.84248 z"
       inkscape:connector-curvature="0"
       style="fill:#000000"
       id="path5106" />
    <text
       xml:space="preserve"
       style="font-size:24px;font-style:normal;font-variant:normal;font-weight:normal;font-stretch:normal;line-height:125%;letter-spacing:0px;word-spacing:0px;fill:#000000;fill-opacity:1;stroke:none;font-family:Latin Modern Roman;-inkscape-font-specification:Latin Modern Roman"
       x="482.52795"
       y="434.68707"
       id="text3857"
       sodipodi:linespacing="125%"><tspan
         sodipodi:role="line"
         id="tspan3859"
         x="482.52795"
         y="434.68707"
         style="font-size:48px;font-style:italic;-inkscape-font-specification:'Latin Modern Roman, Italic'">M</tspan></text>
    <text
       xml:space="preserve"
       style="font-size:24px;font-style:normal;font-variant:normal;font-weight:normal;font-stretch:normal;line-height:125%;letter-spacing:0px;word-spacing:0px;fill:#000000;fill-opacity:1;stroke:none;font-family:Latin Modern Roman;-inkscape-font-specification:Latin Modern Roman"
       x="335.24106"
       y="334.78094"
       id="text3857-7"
       sodipodi:linespacing="125%"><tspan
         sodipodi:role="line"
         id="tspan3859-5"
         x="335.24106"
         y="334.78094"
         style="font-size:48px;font-style:italic;-inkscape-font-specification:'Latin Modern Roman, Italic'">T</tspan></text>
    <rect
       style="color:#000000;fill:#b3b3b3;fill-opacity:1;fill-rule:nonzero;stroke:none;stroke-width:1.875;marker:none;visibility:visible;display:inline;overflow:visible;enable-background:accumulate"
       id="rect3058"
       width="160.00002"
       height="19.999994"
       x="-362.36218"
       y="220"
       rx="0"
       ry="0"
       transform="matrix(0,-1,1,0,0,0)" />
    <path
       style="fill:none;stroke:#000000;stroke-width:4;stroke-linecap:butt;stroke-linejoin:miter;stroke-miterlimit:4;stroke-opacity:1;stroke-dasharray:none"
       d="m 240,202.36218 0,160"
       id="path3054"
       inkscape:connector-curvature="0"
       sodipodi:nodetypes="cc" />
    <path
       style="fill:none;stroke:#000000;stroke-width:4;stroke-linecap:butt;stroke-linejoin:miter;stroke-miterlimit:4;stroke-opacity:1;stroke-dasharray:none;color:#000000;stroke-dashoffset:0;marker:none;visibility:visible;display:inline;overflow:visible;enable-background:accumulate"
       d="m 240,282.36218 10,0 c 0,0 -2.35702,7.64298 0,10 2.35702,2.35702 7.64298,2.35702 10,0 2.35702,-2.35702 0,-10 0,-10"
       id="path3920"
       inkscape:connector-curvature="0"
       sodipodi:nodetypes="ccssc" />
    <path
       style="fill:#ffffff;stroke:#ffffff;stroke-width:1px;stroke-linecap:butt;stroke-linejoin:miter;stroke-opacity:1"
       d="m 466.43794,455.61457 2.77792,4.29314 2.27284,-2.52538 0.50507,-3.78807 z"
       id="path3016"
       inkscape:connector-curvature="0"
       sodipodi:nodetypes="ccccc" />
  </g>
</svg>
