<?xml version="1.0" encoding="UTF-8" standalone="no"?>
<!-- Created with Inkscape (http://www.inkscape.org/) -->

<svg
   xmlns:dc="http://purl.org/dc/elements/1.1/"
   xmlns:cc="http://creativecommons.org/ns#"
   xmlns:rdf="http://www.w3.org/1999/02/22-rdf-syntax-ns#"
   xmlns:svg="http://www.w3.org/2000/svg"
   xmlns="http://www.w3.org/2000/svg"
   xmlns:sodipodi="http://sodipodi.sourceforge.net/DTD/sodipodi-0.dtd"
   xmlns:inkscape="http://www.inkscape.org/namespaces/inkscape"
   width="210mm"
   height="297mm"
   id="svg2"
   version="1.1"
   inkscape:version="0.48.5 r10040"
   sodipodi:docname="tennisBall.svg"
   inkscape:export-filename="/home/sverdan/Travail/01 Cours/08_Physique_3M/01_exercices/images/tennisBall.png"
   inkscape:export-xdpi="150"
   inkscape:export-ydpi="150">
  <defs
     id="defs4">
    <radialGradient
       inkscape:collect="always"
       r="543.36"
       gradientTransform="matrix(1.283,0.96838,-0.60244,0.79816,58.704,-383.59)"
       cx="395.21"
       cy="431.65"
       gradientUnits="userSpaceOnUse"
       id="radialGradient4012">
      <stop
         offset="0"
         style="stop-color:#bee57c"
         id="stop2227" />
      <stop
         offset="1"
         style="stop-color:#a6d904"
         id="stop2229" />
    </radialGradient>
  </defs>
  <sodipodi:namedview
     id="base"
     pagecolor="#ffffff"
     bordercolor="#666666"
     borderopacity="1.0"
     inkscape:pageopacity="0.0"
     inkscape:pageshadow="2"
     inkscape:zoom="1.979899"
     inkscape:cx="372.8856"
     inkscape:cy="621.01525"
     inkscape:document-units="px"
     inkscape:current-layer="layer1"
     showgrid="true"
     inkscape:window-width="1440"
     inkscape:window-height="852"
     inkscape:window-x="0"
     inkscape:window-y="24"
     inkscape:window-maximized="1">
    <inkscape:grid
       type="xygrid"
       id="grid2985"
       empspacing="5"
       visible="true"
       enabled="true"
       snapvisiblegridlinesonly="true" />
  </sodipodi:namedview>
  <metadata
     id="metadata7">
    <rdf:RDF>
      <cc:Work
         rdf:about="">
        <dc:format>image/svg+xml</dc:format>
        <dc:type
           rdf:resource="http://purl.org/dc/dcmitype/StillImage" />
        <dc:title />
      </cc:Work>
    </rdf:RDF>
  </metadata>
  <g
     inkscape:label="Calque 1"
     inkscape:groupmode="layer"
     id="layer1">
    <rect
       style="fill:none"
       y="396.30719"
       x="350.24319"
       height="12.516"
       width="9.0720329"
       id="rect3148" />
    <rect
       style="fill:none"
       y="349.84918"
       x="339.02417"
       height="12.513"
       width="9.0618877"
       id="rect3150" />
    <rect
       style="fill:none"
       y="380.82117"
       x="350.24319"
       height="12.509"
       width="9.0720329"
       id="rect3152" />
    <rect
       style="fill:none"
       y="334.14618"
       x="350.24319"
       height="12.726"
       width="9.0720329"
       id="rect3154" />
    <rect
       style="fill:none"
       y="427.28217"
       x="350.24319"
       height="12.334"
       width="9.0720329"
       id="rect3156" />
    <rect
       style="fill:none"
       y="411.80219"
       x="350.24319"
       height="12.517"
       width="9.0720329"
       id="rect3158" />
    <rect
       style="fill:none"
       y="365.33917"
       x="339.02417"
       height="12.509"
       width="9.0618877"
       id="rect3160" />
    <rect
       style="fill:none"
       y="334.14618"
       x="339.02417"
       height="12.726"
       width="9.0618877"
       id="rect3162" />
    <path
       style="fill:none"
       inkscape:connector-curvature="0"
       d="m 348.08534,454.74218 v -12.148 h -9.06117 v 4.69 c 2.79842,3.38 5.84031,5.91 9.06117,7.46 z"
       id="path3164" />
    <path
       style="fill:none"
       inkscape:connector-curvature="0"
       d="m 359.31524,455.93218 v -13.339 h -9.07203 v 12.974 c 1.66586,0.55 3.35636,0.926 5.09178,0.926 1.34921,0 2.67379,-0.23 3.98025,-0.56 z"
       id="path3166" />
    <rect
       style="fill:none"
       y="380.82117"
       x="339.02417"
       height="12.509"
       width="9.0618877"
       id="rect3168" />
    <rect
       style="fill:none"
       y="427.28217"
       x="339.02417"
       height="12.334"
       width="9.0618877"
       id="rect3170" />
    <rect
       style="fill:none"
       y="411.80219"
       x="339.02417"
       height="12.517"
       width="9.0618877"
       id="rect3172" />
    <rect
       style="fill:none"
       y="396.30719"
       x="339.02417"
       height="12.516"
       width="9.0618877"
       id="rect3174" />
    <path
       style="fill:none"
       inkscape:connector-curvature="0"
       d="m 325.64872,408.82318 v -12.516 h -3.18463 c 0.32172,4.315 0.81808,8.493 1.48399,12.516 h 1.70064 z"
       id="path3176" />
    <rect
       style="fill:none"
       y="349.84918"
       x="350.24319"
       height="12.513"
       width="9.0720329"
       id="rect3178" />
    <rect
       style="fill:none"
       y="365.33917"
       x="327.80368"
       height="12.509"
       width="9.0618877"
       id="rect3180" />
    <rect
       style="fill:none"
       y="349.84918"
       x="327.80368"
       height="12.513"
       width="9.0618877"
       id="rect3182" />
    <rect
       style="fill:none"
       y="380.82117"
       x="327.80368"
       height="12.509"
       width="9.0618877"
       id="rect3184" />
    <path
       style="fill:none"
       inkscape:connector-curvature="0"
       d="m 336.86486,334.14618 h -3.87301 c -1.94556,3.505 -3.70272,7.44 -5.18888,11.842 v 0.884 h 9.06189 v -12.726 z"
       id="path3186" />
    <path
       style="fill:none"
       inkscape:connector-curvature="0"
       d="m 325.64872,380.82118 h -3.54113 c -0.0377,1.397 -0.1,2.777 -0.1,4.206 0,2.812 0.0949,5.575 0.24419,8.304 h 3.39622 l 7.2e-4,-12.51 z"
       id="path3188" />
    <rect
       style="fill:none"
       y="396.30719"
       x="327.80368"
       height="12.516"
       width="9.0618877"
       id="rect3190" />
    <rect
       style="fill:none"
       y="411.80219"
       x="327.80368"
       height="12.517"
       width="9.0618877"
       id="rect3192" />
    <path
       style="fill:none"
       inkscape:connector-curvature="0"
       d="m 325.64872,411.80218 h -1.19197 c 0.3594,1.893 0.76301,3.734 1.19197,5.541 v -5.54 z"
       id="path3194" />
    <rect
       style="fill:none"
       y="365.33917"
       x="350.24319"
       height="12.509"
       width="9.0720329"
       id="rect3196" />
    <path
       style="fill:none"
       inkscape:connector-curvature="0"
       d="m 325.64872,377.84818 v -12.509 h -2.28902 c -0.56084,4.002 -0.97604,8.166 -1.18255,12.509 h 3.47157 z"
       id="path3198" />
    <path
       style="fill:none"
       inkscape:connector-curvature="0"
       d="m 325.64872,353.47918 c -0.70576,2.834 -1.31588,5.795 -1.82527,8.882 h 1.82527 v -8.882 z"
       id="path3200" />
    <rect
       style="fill:none"
       y="411.80219"
       x="361.46732"
       height="12.517"
       width="9.0698586"
       id="rect3202" />
    <path
       style="fill:none"
       inkscape:connector-curvature="0"
       d="m 339.02417,325.51518 v 5.658 h 9.06117 v -12.407 c -3.22086,1.38 -6.26275,3.664 -9.06117,6.749 z"
       id="path3204" />
    <path
       style="fill:none"
       inkscape:connector-curvature="0"
       d="m 372.69359,331.17218 h 3.22593 c -1.02749,-1.602 -2.10642,-3.06 -3.22593,-4.407 v 4.407 z"
       id="path3206" />
    <path
       style="fill:none"
       inkscape:connector-curvature="0"
       d="m 350.24321,331.17218 h 9.07203 v -13.473 c -1.30646,-0.299 -2.63104,-0.499 -3.9788,-0.499 -1.73615,0 -3.42665,0.332 -5.09179,0.824 l -0.001,13.148 z"
       id="path3208" />
    <path
       style="fill:none"
       inkscape:connector-curvature="0"
       d="m 336.86486,331.17218 v -3.083 c -0.73113,0.96 -1.42892,2.01 -2.1173,3.083 h 2.1173 z"
       id="path3210" />
    <path
       style="fill:none"
       inkscape:connector-curvature="0"
       d="m 381.75548,428.40218 v -1.125 h -9.06189 v 12.334 h 4.10125 c 1.84049,-3.33 3.49404,-7.11 4.96064,-11.21 z"
       id="path3212" />
    <path
       style="fill:none"
       inkscape:connector-curvature="0"
       d="m 383.91479,396.30718 v 12.516 h 2.80277 c 0.66518,-4.023 1.16226,-8.201 1.48326,-12.516 h -4.28603 z"
       id="path3214" />
    <path
       style="fill:none"
       inkscape:connector-curvature="0"
       d="m 383.91479,421.58218 c 0.87243,-3.125 1.65065,-6.377 2.2941,-9.788 h -2.2941 v 9.79 z"
       id="path3216" />
    <path
       style="fill:none"
       inkscape:connector-curvature="0"
       d="m 383.91479,365.33918 v 12.509 h 4.5737 c -0.20724,-4.343 -0.62099,-8.507 -1.18183,-12.509 h -3.39187 z"
       id="path3218" />
    <path
       style="fill:none"
       inkscape:connector-curvature="0"
       d="m 336.86486,439.61218 v -12.334 h -8.34598 c 1.56079,4.542 3.34621,8.7 5.35481,12.334 h 2.99117 z"
       id="path3220" />
    <rect
       style="fill:none"
       y="411.80219"
       x="372.69357"
       height="12.517"
       width="9.0618877"
       id="rect3222" />
    <rect
       style="fill:none"
       y="427.28217"
       x="361.46732"
       height="12.334"
       width="9.0698586"
       id="rect3224" />
    <path
       style="fill:none"
       inkscape:connector-curvature="0"
       d="m 372.69359,442.59218 v 3.324 c 0.79054,-1.042 1.56007,-2.147 2.30641,-3.324 h -2.30641 z"
       id="path3226" />
    <path
       style="fill:none"
       inkscape:connector-curvature="0"
       d="m 342.4856,459.25218 c 2.87233,6.64 5.70553,13.666 7.20401,18.853 3.25926,11.231 5.08237,25.036 5.5635,28.956 h 0.25651 c 0.47607,-3.92 2.30496,-17.723 5.56423,-28.956 1.50645,-5.21 4.34834,-12.282 7.24168,-18.938 -4.06067,2.971 -8.42351,4.598 -12.97909,4.598 -4.50703,0 -8.83581,-1.59 -12.85084,-4.51 z"
       id="path3228" />
    <path
       style="fill:none"
       inkscape:connector-curvature="0"
       d="m 336.86486,442.59218 h -1.19705 c 0.39926,0.626 0.78547,1.284 1.19705,1.875 v -1.87 z"
       id="path3230" />
    <rect
       style="fill:none"
       y="349.84918"
       x="372.69357"
       height="12.513"
       width="9.0618877"
       id="rect3232" />
    <rect
       style="fill:none"
       y="349.84918"
       x="361.46732"
       height="12.513"
       width="9.0698586"
       id="rect3234" />
    <rect
       style="fill:none"
       y="334.14618"
       x="361.46732"
       height="12.726"
       width="9.0698586"
       id="rect3236" />
    <path
       style="fill:none"
       inkscape:connector-curvature="0"
       d="m 361.46731,318.32918 v 12.843 h 9.06986 v -6.809 c -2.81871,-2.832 -5.86059,-4.881 -9.06986,-6.034 z"
       id="path3238" />
    <path
       style="fill:none"
       inkscape:connector-curvature="0"
       d="m 370.53644,448.54218 v -5.954 h -9.06913 v 12.63 c 3.20927,-1.29 6.25115,-3.56 9.06913,-6.68 z"
       id="path3240" />
    <rect
       style="fill:none"
       y="365.33917"
       x="361.46732"
       height="12.509"
       width="9.0698586"
       id="rect3242" />
    <rect
       style="fill:none"
       y="396.30719"
       x="372.69357"
       height="12.516"
       width="9.0618877"
       id="rect3244" />
    <rect
       style="fill:none"
       y="380.82117"
       x="361.46732"
       height="12.509"
       width="9.0698586"
       id="rect3246" />
    <rect
       style="fill:none"
       y="396.30719"
       x="361.46732"
       height="12.516"
       width="9.0698586"
       id="rect3248" />
    <rect
       style="fill:none"
       y="380.82117"
       x="372.69357"
       height="12.509"
       width="9.0618877"
       id="rect3250" />
    <rect
       style="fill:none"
       y="365.33917"
       x="372.69357"
       height="12.509"
       width="9.0618877"
       id="rect3252" />
    <path
       style="fill:none"
       inkscape:connector-curvature="0"
       d="m 372.69359,346.87218 h 9.06189 v -3.871 c -1.22676,-3.218 -2.59119,-6.17 -4.07952,-8.855 h -4.98237 v 12.726 z"
       id="path3254" />
    <path
       style="fill:none"
       inkscape:connector-curvature="0"
       d="m 383.91479,393.33018 h 4.49834 c 0.14709,-2.729 0.24419,-5.492 0.24419,-8.304 0,-1.428 -0.0623,-2.808 -0.1,-4.206 h -4.64326 l 7.2e-4,12.51 z"
       id="path3256" />
    <path
       style="fill:none"
       inkscape:connector-curvature="0"
       d="m 383.91479,362.36118 h 2.9274 c -0.7304,-4.433 -1.67528,-8.608 -2.80566,-12.513 h -0.12174 v 12.513 z"
       id="path3258" />
    <path
       inkscape:connector-curvature="0"
       d="m 393.93098,385.02618 c 0,-43.413 -17.31222,-75.104 -38.59526,-75.104 -21.28305,0 -38.59672,31.691 -38.59672,75.104 0,23.14 4.91716,43.977 12.7349,58.403 l -0.38694,0.351 c 0.12174,0.248 12.17116,24.829 15.70723,37.028 2.76798,9.527 4.47442,21.447 5.09686,26.255 h -1.36371 v 78.569 l -2.30134,3.799 v 6.711 h 18.61216 v -7.234 l -2.86218,-3.939 v -77.905 h -1.10719 c 0.62026,-4.808 2.33902,-16.729 5.09468,-26.255 3.53317,-12.199 15.58477,-36.78 15.7123,-37.028 l -0.44853,-0.42 c 7.79963,-14.4 12.70374,-35.217 12.70374,-58.326 z m -71.92339,0 c 0,-1.428 0.0623,-2.808 0.1,-4.206 h 3.54113 v 12.509 h -3.39621 c -0.15,-2.728 -0.24492,-5.491 -0.24492,-8.303 z m 5.7961,8.304 v -12.509 h 9.06189 v 12.509 h -9.06189 z m 9.06117,2.977 v 12.516 h -9.06117 v -12.516 h 9.06117 z m -9.06117,-18.459 v -12.509 h 9.06189 v 12.509 h -9.06189 z m 0,-15.487 v -12.512 h 9.06189 v 12.513 l -9.06189,-0.001 z m 0,-15.489 v -0.884 c 1.48616,-4.401 3.24405,-8.336 5.18889,-11.842 h 3.873 v 12.726 h -9.06189 z m -2.15497,18.467 v 12.509 h -3.47085 c 0.20651,-4.343 0.62026,-8.507 1.18255,-12.509 h 2.2883 z m -1.82527,-2.978 c 0.50867,-3.087 1.11951,-6.048 1.82527,-8.882 v 8.882 h -1.82527 z m 1.82527,33.946 v 12.516 h -1.70064 c -0.66591,-4.023 -1.16227,-8.201 -1.48399,-12.516 h 3.18463 z m 0,15.495 v 5.541 c -0.42896,-1.807 -0.83184,-3.648 -1.19197,-5.541 h 1.19197 z m 2.15497,0 h 9.06189 v 12.517 h -9.06189 v -12.52 z m 31.51155,-46.463 v 12.509 h -9.07203 v -12.509 h 9.07203 z m -9.07203,-2.978 v -12.512 h 9.07203 v 12.513 l -9.07203,-0.001 z m 9.07203,18.46 v 12.509 h -9.07203 v -12.509 h 9.07203 z m 0,15.486 v 12.516 h -9.07203 v -12.516 h 9.07203 z m 0,15.495 v 12.517 h -9.07203 v -12.517 h 9.07203 z m 0,15.48 v 12.334 h -9.07203 v -12.334 h 9.07203 z m 0,-80.41 h -9.07203 v -12.726 h 9.07203 v 12.726 z m -11.2299,2.977 v 12.513 h -9.06117 v -12.513 h 9.06117 z m -9.06117,-2.977 v -12.726 h 9.06117 v 12.726 h -9.06117 z m 9.06117,18.467 v 12.509 h -9.06117 v -12.509 h 9.06117 z m 0,15.482 v 12.509 h -9.06117 v -12.509 h 9.06117 z m 0,15.486 v 12.516 h -9.06117 v -12.516 h 9.06117 z m 0,15.495 v 12.517 h -9.06117 v -12.517 h 9.06117 z m 0,15.48 v 12.334 h -9.06117 v -12.334 h 9.06117 z m -9.06117,-96.11 v -5.658 c 2.7977,-3.085 5.84103,-5.369 9.06189,-6.749 v 12.407 h -9.06189 z m 9.06117,111.42 v 12.148 c -3.22086,-1.542 -6.2642,-4.074 -9.06189,-7.458 v -4.69 h 9.06189 z m 2.15787,0 h 9.07203 v 13.339 c -1.30646,0.336 -2.63104,0.561 -3.9788,0.561 -1.73615,0 -3.42665,-0.375 -5.09179,-0.926 l -0.001,-12.97 z m 11.2241,-18.28 v -12.517 h 9.06986 v 12.517 h -9.06986 z m 9.06913,2.97 v 12.334 h -9.06913 v -12.334 h 9.06913 z m -9.06913,-18.459 v -12.516 h 9.06986 v 12.516 h -9.06986 z m 0,-15.493 v -12.509 h 9.06986 v 12.509 h -9.06986 z m 0,-15.482 v -12.509 h 9.06986 v 12.509 h -9.06986 z m 0,-15.487 v -12.512 h 9.06986 v 12.513 l -9.06986,-0.001 z m 0,-15.489 v -12.726 h 9.06986 v 12.726 h -9.06986 z m 9.06913,95.72 v 5.954 c -2.81798,3.114 -5.85986,5.393 -9.06986,6.68 v -12.633 h 9.06986 z m -9.06913,-111.42 v -12.843 c 3.20927,1.153 6.25188,3.202 9.06986,6.035 v 6.809 l -9.06986,-10e-4 z m 20.28817,11.829 v 3.871 h -9.06189 v -12.726 h 4.98237 c 1.48833,2.684 2.85204,5.637 4.07952,8.855 z m 5.08671,19.36 h -2.9274 v -12.512 h 0.12174 c 1.13038,3.904 2.07526,8.08 2.80566,12.512 z m 1.81513,22.665 c 0,2.812 -0.0971,5.575 -0.24419,8.304 h -4.49834 v -12.509 h 4.64326 c 0.037,1.397 0.0993,2.777 0.0993,4.205 z m -6.90184,-19.687 v 12.509 h -9.06189 v -12.509 h 9.06189 z m -9.06189,-2.978 v -12.512 h 9.06189 v 12.513 l -9.06189,-0.001 z m 9.06189,18.46 v 12.509 h -9.06189 v -12.509 h 9.06189 z m 0,15.486 v 12.516 h -9.06189 v -12.516 h 9.06189 z m 0,15.495 v 12.517 h -9.06189 v -12.517 h 9.06189 z m 2.15931,-2.979 v -12.516 h 4.28676 c -0.321,4.315 -0.81808,8.493 -1.48327,12.516 h -2.80349 z m 2.2941,2.979 c -0.64345,3.411 -1.42167,6.663 -2.2941,9.788 v -9.788 h 2.2941 z m -2.2941,-33.954 v -12.509 h 3.39187 c 0.56012,4.002 0.97459,8.166 1.18183,12.509 h -4.5737 z m -11.2212,49.434 h 9.06189 v 1.125 c -1.46588,4.102 -3.12015,7.877 -4.96064,11.208 h -4.10125 v -12.33 z m 3.22666,-96.11 h -3.22594 v -4.407 c 1.11879,1.348 2.19845,2.805 3.22594,4.407 z m -16.60501,-13.473 v 13.473 h -9.07203 v -13.147 c 1.66586,-0.492 3.35636,-0.824 5.09178,-0.824 1.34921,-0.001 2.67379,0.199 3.98025,0.498 z m -22.45038,10.39 v 3.083 h -2.1173 c 0.68838,-1.073 1.3869,-2.123 2.1173,-3.083 z m -8.34598,99.193 h 8.34742 v 12.334 h -2.99261 c -2.0086,-3.63 -3.79402,-7.79 -5.35481,-12.33 z m 7.14893,15.31 h 1.19705 v 1.875 c -0.41085,-0.59 -0.79779,-1.25 -1.19705,-1.87 z m 25.40532,35.52 c -3.25927,11.232 -5.08744,25.036 -5.56423,28.956 h -0.25651 c -0.48114,-3.92 -2.30424,-17.724 -5.56351,-28.956 -1.49848,-5.188 -4.3324,-12.213 -7.204,-18.852 4.01502,2.918 8.3438,4.512 12.84939,4.512 4.55485,0 8.91986,-1.629 12.97837,-4.598 -2.89045,6.65 -5.73306,13.73 -7.23951,18.94 z m 11.62046,-32.2 v -3.324 H 375 c -0.74562,1.17 -1.51587,2.28 -2.30641,3.32 z"
       id="path3260" />
    <g
       transform="matrix(0.03620238,0,0,0.04151992,316.70796,359.9964)"
       inkscape:label="Capa 1"
       id="layer1-5">
      <g
         id="g4265">
        <path
           sodipodi:cx="305.71429"
           sodipodi:cy="563.79077"
           transform="matrix(1.0578,0,0,1.0578,65.559,20.482)"
           d="m 848.57141,563.79077 c 0,299.81171 -243.04541,542.85713 -542.85712,542.85713 -299.8117025,0 -542.85711,-243.04542 -542.85711,-542.85713 0,-299.81171 243.0454075,-542.857115 542.85711,-542.857115 299.81171,0 542.85712,243.045405 542.85712,542.857115 z"
           sodipodi:type="arc"
           style="fill:url(#radialGradient4012);fill-rule:evenodd;stroke:#477000;stroke-width:2.83599997"
           sodipodi:ry="542.85712"
           sodipodi:rx="542.85712"
           id="path1350" />
        <path
           d="m 0.52462,1040.4 c -14.062,-11.7 -24.166,-23.9 -36.029,-36.5 58.095,1 101.12,-13.58 153.5,-49.77 43.81,-27.62 100.8,-190.47 78.89,-338.09 -14.29,-126.67 -40.21,-102.58 -70.79,-293.44 -13.33,-73.34 0.32,-174.75 101.28,-256.65 27.59,-7.799 38.91,-10.762 84.08,-18.121 -168.1,114.24 -149.43,208.11 -138.58,281.44 5.71,103.81 61.48,156.83 75.77,288.47 21.9,152.59 -46.67,336.66 -90.48,364.28 -52.38,36.18 -99.55,59.28 -157.65,58.38 z"
           style="fill:#f7f7f7;fill-rule:evenodd"
           sodipodi:nodetypes="ccccccccccc"
           id="path2244"
           inkscape:connector-curvature="0" />
        <path
           d="m 840.05,261.16 c 14.17,16.45 22.04,27.5 34.41,47.53 12.3,144.81 17.42,268.06 -17,387.71 -45.73,129.34 -143.59,282.05 -131.81,323.3 -1.11,19.9 -2.22,40.7 7.46,59.7 -10.78,5 -20.66,13.6 -31.43,18.5 -6.15,-22.4 -7.81,-46.7 -5.88,-68.2 11.19,-81.97 42.14,-144.14 82.08,-218.89 25.29,-50.57 39.79,-101.14 59.69,-151.71 24.19,-75.14 23.22,-197 2.48,-397.94 z"
           style="fill:#f7f7f7;fill-rule:evenodd"
           sodipodi:nodetypes="cccccccccc"
           id="path2254"
           inkscape:connector-curvature="0" />
      </g>
    </g>
    <path
       style="fill:none;stroke:#000000;stroke-width:1;stroke-linecap:butt;stroke-linejoin:miter;stroke-opacity:1;stroke-miterlimit:4;stroke-dasharray:4,4;stroke-dashoffset:0"
       d="m 220,387.36218 245,0"
       id="path3395"
       inkscape:connector-curvature="0" />
  </g>
</svg>
