<?xml version="1.0" encoding="UTF-8" standalone="no"?>
<!-- Created with Inkscape (http://www.inkscape.org/) -->

<svg
   xmlns:dc="http://purl.org/dc/elements/1.1/"
   xmlns:cc="http://creativecommons.org/ns#"
   xmlns:rdf="http://www.w3.org/1999/02/22-rdf-syntax-ns#"
   xmlns:svg="http://www.w3.org/2000/svg"
   xmlns="http://www.w3.org/2000/svg"
   xmlns:sodipodi="http://sodipodi.sourceforge.net/DTD/sodipodi-0.dtd"
   xmlns:inkscape="http://www.inkscape.org/namespaces/inkscape"
   width="210mm"
   height="297mm"
   id="svg2"
   version="1.1"
   inkscape:version="0.48.5 r10040"
   sodipodi:docname="wagonnetCorrection.svg">
  <defs
     id="defs4">
    <marker
       style="overflow:visible"
       id="Arrow1Mend2"
       refX="0"
       refY="0"
       orient="auto"
       inkscape:stockid="Arrow1Mend2">
      <path
         inkscape:connector-curvature="0"
         transform="matrix(-0.4,0,0,-0.4,-4,0)"
         style="fill:#ff0000;fill-rule:evenodd;stroke:#ff0000;stroke-width:1pt"
         d="M 0,0 5,-5 -12.5,0 5,5 0,0 z"
         id="path5170" />
    </marker>
    <marker
       style="overflow:visible"
       id="Arrow1Mend"
       refX="0"
       refY="0"
       orient="auto"
       inkscape:stockid="Arrow1Mend">
      <path
         inkscape:connector-curvature="0"
         transform="matrix(-0.4,0,0,-0.4,-4,0)"
         style="fill-rule:evenodd;stroke:#000000;stroke-width:1pt"
         d="M 0,0 5,-5 -12.5,0 5,5 0,0 z"
         id="path4734" />
    </marker>
  </defs>
  <sodipodi:namedview
     id="base"
     pagecolor="#ffffff"
     bordercolor="#666666"
     borderopacity="1.0"
     inkscape:pageopacity="0.0"
     inkscape:pageshadow="2"
     inkscape:zoom="0.9899495"
     inkscape:cx="270.71359"
     inkscape:cy="681.62441"
     inkscape:document-units="px"
     inkscape:current-layer="layer1"
     showgrid="true"
     inkscape:snap-grids="false"
     inkscape:window-width="1280"
     inkscape:window-height="976"
     inkscape:window-x="0"
     inkscape:window-y="24"
     inkscape:window-maximized="1">
    <inkscape:grid
       type="xygrid"
       id="grid2985"
       empspacing="5"
       visible="true"
       enabled="true"
       snapvisiblegridlinesonly="true" />
  </sodipodi:namedview>
  <metadata
     id="metadata7">
    <rdf:RDF>
      <cc:Work
         rdf:about="">
        <dc:format>image/svg+xml</dc:format>
        <dc:type
           rdf:resource="http://purl.org/dc/dcmitype/StillImage" />
        <dc:title></dc:title>
      </cc:Work>
    </rdf:RDF>
  </metadata>
  <g
     inkscape:label="Calque 1"
     inkscape:groupmode="layer"
     id="layer1">
    <path
       style="fill:none;stroke:#000000;stroke-width:2;stroke-linecap:butt;stroke-linejoin:miter;stroke-miterlimit:4;stroke-opacity:1;stroke-dasharray:none"
       d="m 406.08132,455.8671 -4.04061,-7.57614"
       id="path3162"
       inkscape:connector-curvature="0" />
    <path
       style="fill:none;stroke:#000000;stroke-width:2;stroke-linecap:butt;stroke-linejoin:miter;stroke-miterlimit:4;stroke-opacity:1;stroke-dasharray:none"
       d="m 210.6168,444.75542 269.56971,-1.21936"
       id="path3132"
       inkscape:connector-curvature="0"
       sodipodi:nodetypes="cc" />
    <path
       style="fill:none;stroke:#000000;stroke-width:2;stroke-linecap:butt;stroke-linejoin:miter;stroke-miterlimit:4;stroke-opacity:1;stroke-dasharray:none"
       d="m 73.596062,448.04456 c 0,0 -4.0201,-6.07038 -5.71428,-9.28571 -1.09312,-2.0746 -2.07643,-4.21738 -2.85715,-6.42857 -1.2306,-3.48536 -1.93269,-7.13553 -2.85714,-10.71429 -0.98211,-3.80197 -2.37736,-7.53122 -2.85714,-11.42857 -0.37819,-3.07205 0,-6.19047 0,-9.28571 0,-1.90476 -1.19186,-4.2285 0,-5.71429 1.37355,-1.71229 4.2394,-1.26698 6.42857,-1.42857 3.33276,-0.24601 6.83812,-0.36752 10,0.71428 2.43672,0.8337 4.33528,2.78545 6.42857,4.28572 3.17404,2.27485 5.89315,5.20896 9.28571,7.14286 2.22782,1.26995 4.78029,1.86003 7.14286,2.85714 2.160438,0.9118 4.692408,4.4334 6.428568,2.85714 2.78724,-2.53053 -2.87093,-7.01541 -3.57143,-10.71428 -0.84294,-4.45096 -0.86041,-9.04372 -0.71428,-13.57143 0.13147,-4.07341 0.58774,-8.155 1.42857,-12.14286 0.66813,-3.16877 3.63777,-6.14276 2.85714,-9.28571 -0.40583,-1.63394 -3.32002,-1.90672 -3.57143,-3.57143 -1.44728,-9.5833 7.47086,-18.1832 13.57143,-25.71429 5.85254,-7.22489 13.6471,-12.76794 21.42857,-17.85714 4.45566,-2.91407 9.61869,-4.58091 14.28572,-7.14286 3.65103,-2.00422 6.88353,-4.79387 10.71428,-6.42857 2.49687,-1.06549 5.92604,-0.23487 7.85715,-2.14286 2.46606,-2.43653 -0.36178,-8.71288 2.85714,-10 4.36031,-1.74352 7.85663,9.06129 12.14286,7.14286 2.21625,-0.99194 1.75086,-4.73624 1.42857,-7.14286 -0.424,-3.16612 -4.34274,-5.37755 -4.28572,-8.57143 0.0532,-2.98285 2.4421,-5.51166 4.28572,-7.85714 2.18735,-2.78278 4.85667,-5.26522 7.85714,-7.14286 2.17381,-1.36033 4.62477,-2.3722 7.14286,-2.85714 3.27319,-0.63036 7.00562,-1.4645 10,0 2.43866,1.19271 3.71905,4.03508 5,6.42857 0.71055,1.32767 0.0374,3.70946 1.42857,4.28572 1.96749,0.81496 3.5847,-2.85715 5.71429,-2.85715 1.59719,0 3.04363,1.13874 4.28571,2.14286 1.18559,0.95845 1.46841,2.94239 2.85714,3.57143 4.77635,2.16352 10.67885,-2.17672 15.71429,-0.71429 2.791,0.81058 5.44058,2.64438 7.14286,5 1.45597,2.01477 2.02599,4.65982 2.14285,7.14286 0.11415,2.42542 -0.28285,5.00206 -1.42857,7.14286 -1.11218,2.07813 -3.14218,3.54946 -5,5 -2.18857,1.70878 -4.95429,2.57693 -7.14286,4.28571 -1.32701,1.0361 -4.13742,1.98584 -3.57142,3.57143 0.80444,2.25355 4.75018,0.6869 7.14285,0.71429 3.10418,0.0355 6.36796,0.34585 9.28572,-0.71429 1.92504,-0.69945 3.71576,-1.97589 5,-3.57143 2.27392,-2.82511 2.34164,-6.93854 4.28571,-10 1.53692,-2.4203 3.53153,-4.56966 5.71429,-6.42857 2.36344,-2.01279 4.79965,-4.46247 7.85714,-5 2.16197,-0.38009 4.23442,1.49401 6.42857,1.42857 1.73259,-0.0517 3.27408,-1.58898 5,-1.42857 1.06022,0.0985 1.8061,1.59913 2.85714,1.42857 1.32948,-0.21574 1.55334,-3.19499 2.85715,-2.85714 1.67794,0.4348 0.73865,3.40986 1.42857,5 0.55258,1.27361 1.77227,2.23348 2.14286,3.57143 0.44489,1.60619 0.67426,3.47581 0,5 -1.43194,3.23696 -5.17699,4.83091 -7.85715,7.14286 -2.56236,2.21033 -5.54392,3.9587 -7.85714,6.42857 -1.40009,1.49491 -2.43289,3.29743 -3.57143,5 -1.24862,1.86716 -2.9522,3.55514 -3.57143,5.71428 -0.72203,2.51756 1.37692,5.62925 0,7.85715 -1.11959,1.81153 -3.59122,3.02372 -5.71428,2.85714 -2.0419,-0.16021 -3.04953,-2.94637 -5,-3.57143 -2.26737,-0.72661 -4.76216,0.035 -7.14286,0 -8.09786,-0.11906 -16.7587,-3.70321 -24.28571,-0.71429 -2.50358,0.99415 -3.61306,4.02874 -5.71429,5.71429 -2.42155,1.9425 -4.95142,3.90731 -7.85714,5 -2.93125,1.10229 -6.20191,0.88325 -9.28572,1.42857 -2.39101,0.42281 -4.91485,0.46333 -7.14285,1.42857 -1.87938,0.81421 -3.58537,2.09027 -5,3.57143 -3.3298,3.48641 -5.09966,8.18826 -7.85715,12.14286 -2.72366,3.90608 -5.69111,7.63654 -8.57143,11.42857 -2.36203,3.1097 -4.49724,6.4134 -7.14285,9.28571 -2.39799,2.60346 -5.29548,4.70027 -7.85715,7.14286 -2.43692,2.32364 -7.74767,3.83045 -7.14285,7.14286 1.45471,7.96702 22.14285,10 22.14285,10"
       id="path3052"
       inkscape:connector-curvature="0"
       sodipodi:nodetypes="cssssssssssssssssssssssssssssssssssssssssssssssssssssssssssssssssssssssssssc" />
    <path
       style="fill:none;stroke:#000000;stroke-width:2;stroke-linecap:butt;stroke-linejoin:miter;stroke-miterlimit:4;stroke-opacity:1;stroke-dasharray:none"
       d="m 181.4532,403.75885 c 0,0 9.42579,1.07913 10,5 0.95425,6.51588 -8.3827,10.16815 -12.85714,15 -3.20296,3.4588 -11.89068,5.68172 -10,10 2.38925,5.45701 11.92506,-1.26008 17.85714,-0.71429 5.34908,0.49215 10.85331,1.28543 15.71429,3.57143 3.53379,1.66185 8.3255,3.3577 9.28571,7.14286 0.5766,2.27297 -0.97985,5.02335 -2.85714,6.42857 -2.88446,2.15911 -7.11916,1.18995 -10.71428,1.42857 -4.98902,0.33114 -10,0 -15,0 -4.76191,0 -9.52381,0 -14.28572,0 -5,0 -10.00342,0.18481 -15,0 -6.44178,-0.23826 -15.78523,3.98437 -19.28571,-1.42857 -1.51334,-2.34014 1.46818,-5.44111 2.85714,-7.85714 1.85364,-3.22432 4.45851,-5.99724 7.14286,-8.57143 3.67771,-3.52678 7.82096,-6.58665 12.14285,-9.28572 3.61257,-2.25609 7.88033,-3.35833 11.42858,-5.71428 1.82873,-1.21423 5.31259,-2.11296 5,-4.28572 -0.74359,-5.16862 -9.52381,-4.28571 -14.28572,-6.42857 -4.7619,-2.14286 -9.50475,-4.32857 -14.28571,-6.42857 -6.64074,-2.9169 -13.15243,-10.96275 -20,-8.57143 -6.63775,2.31805 -6.94551,12.23872 -10,18.57143 -1.57552,3.26644 -1.05166,8.35903 -4.28572,10 -5.66557,2.87473 -12.394198,-2.80093 -18.571428,-4.28571 -2.86351,-0.68829 -6.72861,-4.44014 -8.57142,-2.14286 -1.66568,2.07646 2.95982,4.55209 3.57142,7.14286 0.60173,2.54898 -0.16274,5.24315 0,7.85714 0.23856,3.83175 1.19002,7.59682 1.42858,11.42857 0.13315,2.13872 1.43787,4.83974 0,6.42857 -1.6056,1.77417 -4.75195,0.8102 -7.14286,0.71429 -2.65985,-0.1067 -6.15148,0.61517 -7.85714,-1.42857 -0.15256,-0.1828 0,-0.71429 0,-0.71429"
       id="path3054"
       inkscape:connector-curvature="0"
       sodipodi:nodetypes="cssssssssssssssssssssssssssssssc" />
    <path
       style="fill:none;stroke:#000000;stroke-width:2;stroke-linecap:butt;stroke-linejoin:miter;stroke-miterlimit:4;stroke-opacity:1;stroke-dasharray:none"
       d="m 104.55079,365.41784 18.68782,12.6269 17.17259,7.57615 15.65737,8.5863 3.53553,1.01015"
       id="path3056"
       inkscape:connector-curvature="0" />
    <path
       style="fill:none;stroke:#000000;stroke-width:2;stroke-linecap:butt;stroke-linejoin:miter;stroke-miterlimit:4;stroke-opacity:1;stroke-dasharray:none"
       d="m 110.10663,385.11581 13.13198,6.56599 5.05076,1.01016"
       id="path3058"
       inkscape:connector-curvature="0" />
    <path
       style="fill:none;stroke:#000000;stroke-width:2;stroke-linecap:butt;stroke-linejoin:miter;stroke-miterlimit:4;stroke-opacity:1;stroke-dasharray:none"
       d="m 186.87822,326.52696 45.45686,3.03046"
       id="path3060"
       inkscape:connector-curvature="0" />
    <path
       style="fill:none;stroke:#000000;stroke-width:2;stroke-linecap:butt;stroke-linejoin:miter;stroke-miterlimit:4;stroke-opacity:1;stroke-dasharray:none"
       d="m 176.27162,312.38483 77.78174,4.54569 8.5863,-5.55584 7.07107,-10.10153 7.57614,-7.57614 9.59645,-4.54569"
       id="path3062"
       inkscape:connector-curvature="0" />
    <path
       style="fill:none;stroke:#000000;stroke-width:2;stroke-linecap:butt;stroke-linejoin:miter;stroke-miterlimit:4;stroke-opacity:1;stroke-dasharray:none"
       d="m 168.69547,303.29346 9.09138,7.07106"
       id="path3064"
       inkscape:connector-curvature="0" />
    <path
       style="fill:none;stroke:#000000;stroke-width:2;stroke-linecap:butt;stroke-linejoin:miter;stroke-miterlimit:4;stroke-opacity:1;stroke-dasharray:none"
       d="m 276.27672,330.0625 11.61675,103.54063 134.35029,-2.0203 28.78935,-121.21831 -167.68532,1.51523 -7.07107,9.09138 z"
       id="path3066"
       inkscape:connector-curvature="0" />
    <path
       style="fill:none;stroke:#000000;stroke-width:2;stroke-linecap:butt;stroke-linejoin:miter;stroke-miterlimit:4;stroke-opacity:1;stroke-dasharray:none"
       d="m 296.47977,312.38483 7.07107,114.65231"
       id="path3068"
       inkscape:connector-curvature="0" />
    <path
       style="fill:none;stroke:#000000;stroke-width:2;stroke-linecap:butt;stroke-linejoin:miter;stroke-miterlimit:4;stroke-opacity:1;stroke-dasharray:none"
       d="m 287.3884,427.54222 135.86552,-4.04061"
       id="path3070"
       inkscape:connector-curvature="0" />
    <path
       style="fill:none;stroke:#000000;stroke-width:2;stroke-linecap:butt;stroke-linejoin:miter;stroke-miterlimit:4;stroke-opacity:1;stroke-dasharray:none"
       d="M 408.6067,423.50161 430.32498,310.8696"
       id="path3072"
       inkscape:connector-curvature="0" />
    <path
       style="fill:none;stroke:#000000;stroke-width:2;stroke-linecap:butt;stroke-linejoin:miter;stroke-miterlimit:4;stroke-opacity:1;stroke-dasharray:none"
       d="m 299.00515,344.20463 125.25892,-4.54568"
       id="path3074"
       inkscape:connector-curvature="0" />
    <path
       style="fill:none;stroke:#000000;stroke-width:2;stroke-linecap:butt;stroke-linejoin:miter;stroke-miterlimit:4;stroke-opacity:1;stroke-dasharray:none"
       d="m 301.02546,379.55997 115.66246,-2.52538"
       id="path3076"
       inkscape:connector-curvature="0" />
    <path
       style="fill:none;stroke:#000000;stroke-width:2;stroke-linecap:butt;stroke-linejoin:miter;stroke-miterlimit:4;stroke-opacity:1;stroke-dasharray:none"
       d="m 302.03561,404.30871 111.11678,-3.03046"
       id="path3078"
       inkscape:connector-curvature="0" />
    <path
       sodipodi:type="arc"
       style="color:#000000;fill:#ffffff;stroke:#000000;stroke-width:2;stroke-linecap:butt;stroke-linejoin:miter;stroke-miterlimit:4;stroke-opacity:1;stroke-dasharray:none;stroke-dashoffset:0;marker:none;visibility:visible;display:inline;overflow:visible;enable-background:accumulate"
       id="path3080"
       sodipodi:cx="401.78818"
       sodipodi:cy="415.96606"
       sodipodi:rx="10.859139"
       sodipodi:ry="10.606602"
       d="m 412.64732,415.96606 a 10.859139,10.606602 0 1 1 -21.71828,0 10.859139,10.606602 0 1 1 21.71828,0 z"
       transform="translate(-85.357889,28.789347)" />
    <path
       transform="translate(-6.8185321,27.779209)"
       sodipodi:type="arc"
       style="color:#000000;fill:#ffffff;stroke:#000000;stroke-width:2;stroke-linecap:butt;stroke-linejoin:miter;stroke-miterlimit:4;stroke-opacity:1;stroke-dasharray:none;stroke-dashoffset:0;marker:none;visibility:visible;display:inline;overflow:visible;enable-background:accumulate"
       id="path3080-7"
       sodipodi:cx="401.78818"
       sodipodi:cy="415.96606"
       sodipodi:rx="10.859139"
       sodipodi:ry="10.606602"
       d="m 412.64732,415.96606 a 10.859139,10.606602 0 1 1 -21.71828,0 10.859139,10.606602 0 1 1 21.71828,0 z" />
    <path
       style="fill:none;stroke:#000000;stroke-width:2;stroke-linecap:butt;stroke-linejoin:miter;stroke-miterlimit:4;stroke-opacity:1;stroke-dasharray:none"
       d="m 292.43916,311.37468 8.5863,-8.08122 13.63706,-1.01016 3.53553,4.04061 4.54569,5.55584"
       id="path3116"
       inkscape:connector-curvature="0" />
    <path
       style="fill:none;stroke:#000000;stroke-width:2;stroke-linecap:butt;stroke-linejoin:miter;stroke-miterlimit:4;stroke-opacity:1;stroke-dasharray:none"
       d="m 318.70313,306.32391 2.52538,-9.59645 10.6066,-4.04061 5.05076,8.08122 3.53554,7.57615 1.01015,2.0203"
       id="path3118"
       inkscape:connector-curvature="0" />
    <path
       style="fill:none;stroke:#000000;stroke-width:2;stroke-linecap:butt;stroke-linejoin:miter;stroke-miterlimit:4;stroke-opacity:1;stroke-dasharray:none"
       d="m 336.88587,298.74777 16.16244,-2.52538 5.55584,5.55584 4.04061,3.03045 0.50508,5.55584"
       id="path3120"
       inkscape:connector-curvature="0" />
    <path
       style="fill:none;stroke:#000000;stroke-width:2;stroke-linecap:butt;stroke-linejoin:miter;stroke-miterlimit:4;stroke-opacity:1;stroke-dasharray:none"
       d="m 357.594,300.76807 3.53553,-11.11167 10.60661,-5.05077 10.6066,3.03046 2.52538,9.09137 1.51523,10.60661 1.01015,2.52538"
       id="path3122"
       inkscape:connector-curvature="0" />
    <path
       style="fill:none;stroke:#000000;stroke-width:2;stroke-linecap:butt;stroke-linejoin:miter;stroke-miterlimit:4;stroke-opacity:1;stroke-dasharray:none"
       d="m 410.62701,310.36452 -1.01015,-10.6066 -7.57615,-4.54568 -8.58629,-0.50508 -7.07107,4.04061"
       id="path3124"
       inkscape:connector-curvature="0" />
    <path
       style="fill:none;stroke:#000000;stroke-width:2;stroke-linecap:butt;stroke-linejoin:miter;stroke-miterlimit:4;stroke-opacity:1;stroke-dasharray:none"
       d="m 411.63716,301.77823 11.11168,1.01015 7.07107,3.03046 3.03045,4.54568"
       id="path3126"
       inkscape:connector-curvature="0" />
    <path
       style="fill:none;stroke:#000000;stroke-width:2;stroke-linecap:butt;stroke-linejoin:miter;stroke-miterlimit:4;stroke-opacity:1;stroke-dasharray:none"
       d="m 31.819812,453.34172 457.111438,2.82124"
       id="path3128"
       inkscape:connector-curvature="0"
       sodipodi:nodetypes="cc" />
    <path
       style="fill:none;stroke:#000000;stroke-width:2;stroke-linecap:butt;stroke-linejoin:miter;stroke-miterlimit:4;stroke-opacity:1;stroke-dasharray:none"
       d="m 35.355332,452.29096 7.57615,-5.05076"
       id="path3134"
       inkscape:connector-curvature="0" />
    <path
       style="fill:none;stroke:#000000;stroke-width:2;stroke-linecap:butt;stroke-linejoin:miter;stroke-miterlimit:4;stroke-opacity:1;stroke-dasharray:none"
       d="m 52.527932,453.8468 14.14214,-9.09138"
       id="path3136"
       inkscape:connector-curvature="0" />
    <path
       style="fill:none;stroke:#000000;stroke-width:2;stroke-linecap:butt;stroke-linejoin:miter;stroke-miterlimit:4;stroke-opacity:1;stroke-dasharray:none"
       d="m 86.620582,453.34172 19.192888,-9.09137"
       id="path3138"
       inkscape:connector-curvature="0" />
    <path
       style="fill:none;stroke:#000000;stroke-width:2;stroke-linecap:butt;stroke-linejoin:miter;stroke-miterlimit:4;stroke-opacity:1;stroke-dasharray:none"
       d="m 115.15739,453.08919 16.66752,-9.09138"
       id="path3140"
       inkscape:connector-curvature="0" />
    <path
       style="fill:none;stroke:#000000;stroke-width:2;stroke-linecap:butt;stroke-linejoin:miter;stroke-miterlimit:4;stroke-opacity:1;stroke-dasharray:none"
       d="m 212.63711,454.35187 13.13198,-10.10152"
       id="path3146"
       inkscape:connector-curvature="0" />
    <path
       style="fill:none;stroke:#000000;stroke-width:2;stroke-linecap:butt;stroke-linejoin:miter;stroke-miterlimit:4;stroke-opacity:1;stroke-dasharray:none"
       d="m 239.40615,454.85695 10.6066,-10.10153"
       id="path3148"
       inkscape:connector-curvature="0" />
    <path
       style="fill:none;stroke:#000000;stroke-width:2;stroke-linecap:butt;stroke-linejoin:miter;stroke-miterlimit:4;stroke-opacity:1;stroke-dasharray:none"
       d="m 263.64981,454.85695 9.59645,-10.6066"
       id="path3150"
       inkscape:connector-curvature="0" />
    <path
       style="fill:none;stroke:#000000;stroke-width:2;stroke-linecap:butt;stroke-linejoin:miter;stroke-miterlimit:4;stroke-opacity:1;stroke-dasharray:none"
       d="m 291.93408,454.85695 6.566,-10.10153"
       id="path3152"
       inkscape:connector-curvature="0" />
    <path
       style="fill:none;stroke:#000000;stroke-width:2;stroke-linecap:butt;stroke-linejoin:miter;stroke-miterlimit:4;stroke-opacity:1;stroke-dasharray:none"
       d="m 318.19805,456.37217 0.50507,-2.52538"
       id="path3154"
       inkscape:connector-curvature="0" />
    <path
       style="fill:none;stroke:#000000;stroke-width:2;stroke-linecap:butt;stroke-linejoin:miter;stroke-miterlimit:4;stroke-opacity:1;stroke-dasharray:none"
       d="m 337.89603,454.85695 1.51522,-10.10153"
       id="path3156"
       inkscape:connector-curvature="0" />
    <path
       style="fill:none;stroke:#000000;stroke-width:2;stroke-linecap:butt;stroke-linejoin:miter;stroke-miterlimit:4;stroke-opacity:1;stroke-dasharray:none"
       d="m 360.62446,455.36202 -1.51523,-11.11167"
       id="path3158"
       inkscape:connector-curvature="0" />
    <path
       style="fill:none;stroke:#000000;stroke-width:2;stroke-linecap:butt;stroke-linejoin:miter;stroke-miterlimit:4;stroke-opacity:1;stroke-dasharray:none"
       d="m 380.82751,455.36202 -3.03046,-11.11167"
       id="path3160"
       inkscape:connector-curvature="0" />
    <path
       style="fill:none;stroke:#000000;stroke-width:2;stroke-linecap:butt;stroke-linejoin:miter;stroke-miterlimit:4;stroke-opacity:1;stroke-dasharray:none"
       d="m 430.32498,455.36202 -9.59645,-11.11167"
       id="path3164"
       inkscape:connector-curvature="0" />
    <path
       style="fill:none;stroke:#000000;stroke-width:2;stroke-linecap:butt;stroke-linejoin:miter;stroke-miterlimit:4;stroke-opacity:1;stroke-dasharray:none"
       d="m 451.03311,454.85695 -10.6066,-10.6066"
       id="path3166"
       inkscape:connector-curvature="0" />
    <path
       style="fill:none;stroke:#000000;stroke-width:2;stroke-linecap:butt;stroke-linejoin:miter;stroke-miterlimit:4;stroke-opacity:1;stroke-dasharray:none"
       d="M 473.76154,455.8671 459.11433,443.74527"
       id="path3168"
       inkscape:connector-curvature="0" />
    <path
       style="fill:none;stroke:#000000;stroke-width:2;stroke-linecap:butt;stroke-linejoin:miter;stroke-miterlimit:4;stroke-opacity:1;stroke-dasharray:none"
       d="m 38.385792,445.51304 31.31473,-1.01016"
       id="path3195"
       inkscape:connector-curvature="0" />
    <path
       style="fill:none;stroke:#000000;stroke-width:2;stroke-linecap:butt;stroke-linejoin:miter;stroke-miterlimit:4;stroke-opacity:1;stroke-dasharray:none"
       d="m 87.883272,444.75542 46.972088,-1.01015"
       id="path3197"
       inkscape:connector-curvature="0" />
    <path
       inkscape:connector-curvature="0"
       id="path4031-7"
       d="m 282.65531,311.57909 254.52153,-0.19775"
       style="fill:#ff0000;stroke:#ff0000;stroke-width:6.08677626;stroke-linecap:butt;stroke-linejoin:miter;stroke-miterlimit:4;stroke-opacity:1;stroke-dasharray:none;marker-mid:none;marker-end:url(#Arrow1Mend2)"
       sodipodi:nodetypes="cc" />
    <g
       id="g3598"
       transform="matrix(1.9032745,0,0,1.8387944,-149.3029,-441.7169)">
      <text
         sodipodi:linespacing="125%"
         id="text5407-9"
         y="394.36533"
         x="323.98849"
         style="font-size:28px;font-style:normal;font-variant:normal;font-weight:normal;font-stretch:normal;line-height:125%;letter-spacing:0px;word-spacing:0px;fill:#000000;fill-opacity:1;stroke:none;font-family:Latin Modern Roman;-inkscape-font-specification:Sans"
         xml:space="preserve"><tspan
           y="394.36533"
           x="323.98849"
           id="tspan5409-5"
           sodipodi:role="line"
           style="font-style:italic;-inkscape-font-specification:'Latin Modern Roman, Italic'">F</tspan></text>
      <path
         inkscape:connector-curvature="0"
         id="path5419-4-48"
         d="m 328.98848,369.36533 20,0"
         style="fill:none;stroke:#000000;stroke-width:1px;stroke-linecap:butt;stroke-linejoin:miter;stroke-opacity:1;marker-end:url(#Arrow1Mend)" />
    </g>
    <text
       xml:space="preserve"
       style="font-size:22px;font-style:normal;font-variant:normal;font-weight:normal;font-stretch:normal;line-height:125%;letter-spacing:0px;word-spacing:0px;fill:#000000;fill-opacity:1;stroke:none;font-family:Latin Modern Roman;-inkscape-font-specification:Sans"
       x="450.69595"
       y="353.45844"
       id="text3603"
       sodipodi:linespacing="125%"><tspan
         sodipodi:role="line"
         id="tspan3605"
         x="450.69595"
         y="353.45844"
         style="font-size:32px">(mesure 2,5 cm</tspan><tspan
         sodipodi:role="line"
         x="450.69595"
         y="393.45844"
         id="tspan3607"
         style="font-size:32px"> car 1 cm pour</tspan><tspan
         sodipodi:role="line"
         x="450.69595"
         y="433.45844"
         style="font-size:32px"
         id="tspan3278"> 200 N)</tspan></text>
  </g>
</svg>
